RobotoSerifText-SuperWdth530.ufo
<glyph name="ampersand" format="2">
  <advance width="670"/>
  <unicode hex="0026"/>
  <outline>
    <contour>
      <point x="600.748" y="288.64" type="curve" smooth="yes"/>
      <point x="606.244" y="321.64"/>
      <point x="615.128" y="326.64"/>
      <point x="631.92" y="326.64" type="curve" smooth="yes"/>
      <point x="646.136" y="326.64" type="line"/>
      <point x="646.136" y="403.46" type="line"/>
      <point x="478.424" y="403.46" type="line"/>
      <point x="478.424" y="326.64" type="line"/>
      <point x="486.496" y="326.64" type="line" smooth="yes"/>
      <point x="501.88800000000003" y="326.64"/>
      <point x="518.116" y="323.64"/>
      <point x="518.116" y="316.64" type="curve" smooth="yes"/>
      <point x="518.116" y="217.28"/>
      <point x="406.724" y="88.0"/>
      <point x="333.6" y="88.0" type="curve" smooth="yes"/>
      <point x="266.34799999999996" y="88.0"/>
      <point x="223.008" y="145.84"/>
      <point x="223.008" y="232.66" type="curve" smooth="yes"/>
      <point x="223.008" y="308.9"/>
      <point x="238.412" y="362.9"/>
      <point x="279.822" y="394.76" type="curve"/>
      <point x="244.566" y="433.18" type="line"/>
      <point x="112.72200000000001" y="406.06"/>
      <point x="21.146000000000004" y="330.34"/>
      <point x="21.146000000000004" y="212.04" type="curve" smooth="yes"/>
      <point x="21.146000000000004" y="68.84"/>
      <point x="128.03199999999998" y="-10.0"/>
      <point x="273.03200000000004" y="-10.0" type="curve" smooth="yes"/>
      <point x="481.448" y="-10.0"/>
      <point x="582.638" y="193.34"/>
    </contour>
    <contour>
      <point x="667.6" y="0.0" type="line"/>
      <point x="667.6" y="78.64" type="line"/>
      <point x="665.152" y="78.64" type="line" smooth="yes"/>
      <point x="649.454" y="78.64"/>
      <point x="641.652" y="82.46000000000001"/>
      <point x="626.86" y="100.28" type="curve" smooth="yes"/>
      <point x="436.59000000000003" y="281.94"/>
      <point x="352.746" y="424.84"/>
      <point x="352.746" y="542.12" type="curve" smooth="yes"/>
      <point x="352.746" y="603.34"/>
      <point x="362.442" y="626.02"/>
      <point x="381.388" y="626.02" type="curve" smooth="yes"/>
      <point x="397.90999999999997" y="626.02"/>
      <point x="401.158" y="604.2"/>
      <point x="401.158" y="572.7" type="curve" smooth="yes"/>
      <point x="401.158" y="512.88"/>
      <point x="381.88200000000006" y="472.28"/>
      <point x="310.182" y="443.76" type="curve"/>
      <point x="340.472" y="373.24" type="line"/>
      <point x="456.312" y="407.5"/>
      <point x="538.768" y="467.36"/>
      <point x="538.768" y="568.66" type="curve" smooth="yes"/>
      <point x="538.768" y="655.54"/>
      <point x="480.118" y="719.72"/>
      <point x="365.572" y="719.72" type="curve" smooth="yes"/>
      <point x="237.4" y="719.72"/>
      <point x="155.332" y="652.14"/>
      <point x="155.332" y="528.78" type="curve" smooth="yes"/>
      <point x="155.332" y="387.14"/>
      <point x="275.856" y="158.46"/>
      <point x="465.844" y="0.0" type="curve"/>
    </contour>
  </outline>
</glyph>
<glyph name="period" format="2">
  <advance width="314"/>
  <unicode hex="002E"/>
  <outline>
    <contour>
      <point x="274" y="94" type="curve" smooth="yes"/>
      <point x="274" y="158"/>
      <point x="231" y="203"/>
      <point x="157" y="203" type="curve" smooth="yes"/>
      <point x="83" y="203"/>
      <point x="40" y="158"/>
      <point x="40" y="94" type="curve" smooth="yes"/>
      <point x="40" y="29"/>
      <point x="83" y="-15"/>
      <point x="157" y="-15" type="curve" smooth="yes"/>
      <point x="231" y="-15"/>
      <point x="274" y="29"/>
    </contour>
  </outline>
</glyph>
<glyph name="L" format="2">
  <advance width="550"/>
  <unicode hex="004C"/>
  <anchor x="317" y="741.0" name="top"/>
  <anchor x="394" y="710.0" name="right"/>
  <anchor x="396" y="410.0" name="mid"/>
  <anchor x="317" y="0.0" name="bottom"/>
  <outline>
    <contour>
      <point x="343" y="710" type="line"/>
      <point x="343" y="633" type="line"/>
      <point x="329" y="633" type="line" smooth="yes"/>
      <point x="310" y="633"/>
      <point x="298" y="626"/>
      <point x="298" y="597" type="curve" smooth="yes"/>
      <point x="298" y="87" type="line"/>
      <point x="336" y="87" type="line" smooth="yes"/>
      <point x="396" y="87"/>
      <point x="423" y="94"/>
      <point x="425" y="130" type="curve" smooth="yes"/>
      <point x="434" y="246" type="line"/>
      <point x="534" y="246" type="line"/>
      <point x="534" y="0" type="line"/>
      <point x="15" y="0" type="line"/>
      <point x="15" y="77" type="line"/>
      <point x="23" y="77" type="line" smooth="yes"/>
      <point x="40" y="77"/>
      <point x="52" y="84"/>
      <point x="52" y="113" type="curve" smooth="yes"/>
      <point x="52" y="597" type="line" smooth="yes"/>
      <point x="52" y="626"/>
      <point x="40" y="633"/>
      <point x="23" y="633" type="curve" smooth="yes"/>
      <point x="15" y="633" type="line"/>
      <point x="15" y="710" type="line"/>
    </contour>
  </outline>
</glyph>
<glyph name="N" format="2">
  <advance width="618"/>
  <unicode hex="004E"/>
  <anchor x="342" y="741.0" name="top"/>
  <anchor x="342" y="0.0" name="bottom"/>
  <outline>
    <contour>
      <point x="15" y="0" type="line"/>
      <point x="186" y="0" type="line"/>
      <point x="186" y="77" type="line"/>
      <point x="176" y="77" type="line" smooth="yes"/>
      <point x="157" y="77"/>
      <point x="141" y="85"/>
      <point x="141" y="92" type="curve" smooth="yes"/>
      <point x="141" y="657" type="line"/>
      <point x="107" y="670" type="line"/>
      <point x="337" y="0" type="line"/>
      <point x="566" y="0" type="line"/>
      <point x="566" y="596" type="line" smooth="yes"/>
      <point x="566" y="625"/>
      <point x="578" y="633"/>
      <point x="595" y="633" type="curve" smooth="yes"/>
      <point x="603" y="633" type="line"/>
      <point x="603" y="710" type="line"/>
      <point x="432" y="710" type="line"/>
      <point x="432" y="633" type="line"/>
      <point x="442" y="633" type="line" smooth="yes"/>
      <point x="460" y="633"/>
      <point x="477" y="625"/>
      <point x="477" y="618" type="curve" smooth="yes"/>
      <point x="477" y="202" type="line"/>
      <point x="511" y="177" type="line"/>
      <point x="356" y="710" type="line"/>
      <point x="15" y="710" type="line"/>
      <point x="15" y="633" type="line"/>
      <point x="23" y="633" type="line" smooth="yes"/>
      <point x="40" y="633"/>
      <point x="52" y="626"/>
      <point x="52" y="597" type="curve" smooth="yes"/>
      <point x="52" y="118" type="line" smooth="yes"/>
      <point x="52" y="89"/>
      <point x="40" y="77"/>
      <point x="23" y="77" type="curve" smooth="yes"/>
      <point x="15" y="77" type="line"/>
    </contour>
  </outline>
</glyph>
<glyph name="P" format="2">
  <advance width="617"/>
  <unicode hex="0050"/>
  <outline>
    <contour>
      <point x="298" y="87" type="line"/>
      <point x="298" y="80"/>
      <point x="312" y="77"/>
      <point x="325" y="77" type="curve" smooth="yes"/>
      <point x="344" y="77" type="line"/>
      <point x="344" y="0" type="line"/>
      <point x="15" y="0" type="line"/>
      <point x="15" y="77" type="line"/>
      <point x="23" y="77" type="line" smooth="yes"/>
      <point x="40" y="77"/>
      <point x="52" y="84"/>
      <point x="52" y="113" type="curve" smooth="yes"/>
      <point x="52" y="597" type="line" smooth="yes"/>
      <point x="52" y="626"/>
      <point x="40" y="633"/>
      <point x="23" y="633" type="curve" smooth="yes"/>
      <point x="15" y="633" type="line"/>
      <point x="15" y="710" type="line"/>
      <point x="376" y="710" type="line" smooth="yes"/>
      <point x="529" y="710"/>
      <point x="617" y="633"/>
      <point x="617" y="496" type="curve" smooth="yes"/>
      <point x="617" y="353"/>
      <point x="523" y="268"/>
      <point x="371" y="268" type="curve" smooth="yes"/>
      <point x="258" y="268" type="line"/>
      <point x="258" y="355" type="line"/>
      <point x="307" y="355" type="line" smooth="yes"/>
      <point x="348" y="355"/>
      <point x="380" y="400"/>
      <point x="380" y="491" type="curve" smooth="yes"/>
      <point x="380" y="583"/>
      <point x="348" y="622"/>
      <point x="310" y="622" type="curve" smooth="yes"/>
      <point x="298" y="622" type="line"/>
    </contour>
  </outline>
</glyph>
<glyph name="W" format="2">
  <advance width="867"/>
  <unicode hex="0057"/>
  <anchor x="453.312" y="741.0" name="top"/>
  <outline>
    <contour>
      <point x="8.426" y="710.0" type="line"/>
      <point x="8.426" y="632.9" type="line"/>
      <point x="14.886000000000001" y="632.9" type="line" smooth="yes"/>
      <point x="30.596" y="632.9"/>
      <point x="43.764" y="627.32"/>
      <point x="46.482" y="603.64" type="curve" smooth="yes"/>
      <point x="134.50400000000002" y="0.0" type="line"/>
      <point x="373.398" y="0.0" type="line"/>
      <point x="456.21799999999996" y="554.7" type="line"/>
      <point x="442.674" y="555.56" type="line"/>
      <point x="509.89" y="0.0" type="line"/>
      <point x="735.64" y="0.0" type="line"/>
      <point x="820.9200000000001" y="589.9" type="line" smooth="yes"/>
      <point x="825.474" y="623.04"/>
      <point x="835.3000000000001" y="632.9"/>
      <point x="853.716" y="632.9" type="curve" smooth="yes"/>
      <point x="858.976" y="632.9" type="line"/>
      <point x="858.976" y="710.0" type="line"/>
      <point x="705.1500000000001" y="710.0" type="line"/>
      <point x="705.1500000000001" y="632.9" type="line"/>
      <point x="717.8" y="632.9" type="line" smooth="yes"/>
      <point x="727.238" y="632.9"/>
      <point x="738.394" y="625.9"/>
      <point x="738.394" y="614.9" type="curve"/>
      <point x="688.4639999999999" y="166.1" type="line"/>
      <point x="701.902" y="166.96" type="line"/>
      <point x="631.52" y="710.0" type="line"/>
      <point x="412.408" y="710.0" type="line"/>
      <point x="326.116" y="159.66" type="line"/>
      <point x="338.154" y="163.1" type="line"/>
      <point x="298.26199999999994" y="622.9" type="line"/>
      <point x="298.26199999999994" y="629.9"/>
      <point x="311.51200000000006" y="632.9"/>
      <point x="322.244" y="632.9" type="curve" smooth="yes"/>
      <point x="333.294" y="632.9" type="line"/>
      <point x="333.294" y="710.0" type="line"/>
    </contour>
  </outline>
</glyph>
<glyph name="Y" format="2">
  <advance width="588"/>
  <unicode hex="0059"/>
  <anchor x="288" y="741.0" name="top"/>
  <anchor x="288" y="0.0" name="bottom"/>
  <outline>
    <contour>
      <point x="173" y="325" type="line"/>
      <point x="173" y="113" type="line" smooth="yes"/>
      <point x="173" y="84"/>
      <point x="161" y="77"/>
      <point x="145" y="77" type="curve" smooth="yes"/>
      <point x="134" y="77" type="line"/>
      <point x="134" y="0" type="line"/>
      <point x="458" y="0" type="line"/>
      <point x="458" y="77" type="line"/>
      <point x="446" y="77" type="line" smooth="yes"/>
      <point x="430" y="77"/>
      <point x="418" y="84"/>
      <point x="418" y="113" type="curve" smooth="yes"/>
      <point x="418" y="325" type="line"/>
      <point x="410" y="278" type="line"/>
      <point x="540" y="592" type="line" smooth="yes"/>
      <point x="554" y="626"/>
      <point x="564" y="633"/>
      <point x="580" y="633" type="curve" smooth="yes"/>
      <point x="582" y="633" type="line"/>
      <point x="582" y="710" type="line"/>
      <point x="417" y="710" type="line"/>
      <point x="417" y="633" type="line"/>
      <point x="425" y="633" type="line" smooth="yes"/>
      <point x="444" y="633"/>
      <point x="458" y="626"/>
      <point x="458" y="615" type="curve"/>
      <point x="344" y="333" type="line"/>
      <point x="398" y="351" type="line"/>
      <point x="288" y="623" type="line"/>
      <point x="288" y="630"/>
      <point x="299" y="633"/>
      <point x="316" y="633" type="curve" smooth="yes"/>
      <point x="330" y="633" type="line"/>
      <point x="330" y="710" type="line"/>
      <point x="6" y="710" type="line"/>
      <point x="6" y="633" type="line"/>
      <point x="10" y="633" type="line" smooth="yes"/>
      <point x="24" y="633"/>
      <point x="31" y="633"/>
      <point x="43" y="607" type="curve" smooth="yes"/>
      <point x="184" y="280" type="line"/>
    </contour>
  </outline>
</glyph>
<glyph name="underscore" format="2">
  <advance width="400.04"/>
  <unicode hex="005F"/>
  <outline>
    <contour>
      <point x="-4.0600000000000005" y="-69.19999999999999" type="line"/>
      <point x="-4.0600000000000005" y="-167.9" type="line"/>
      <point x="404.57" y="-167.9" type="line"/>
      <point x="404.57" y="-69.19999999999999" type="line"/>
    </contour>
  </outline>
</glyph>
<glyph name="f" format="2">
  <advance width="386"/>
  <unicode hex="0066"/>
  <outline>
    <contour>
      <point x="-6.378" y="513.16" type="line"/>
      <point x="-6.378" y="432.08" type="line"/>
      <point x="376.31600000000003" y="432.08" type="line"/>
      <point x="376.31600000000003" y="513.16" type="line"/>
    </contour>
    <contour>
      <point x="404.87600000000003" y="735.12" type="line"/>
      <point x="391.438" y="741.12"/>
      <point x="349.99199999999996" y="747.7"/>
      <point x="297.732" y="747.7" type="curve" smooth="yes"/>
      <point x="156.686" y="747.7"/>
      <point x="47.400000000000006" y="695.38"/>
      <point x="47.400000000000006" y="542.62" type="curve" smooth="yes"/>
      <point x="47.400000000000006" y="102.5" type="line" smooth="yes"/>
      <point x="47.400000000000006" y="81.24000000000001"/>
      <point x="37.692" y="71.66"/>
      <point x="18.945999999999998" y="71.66" type="curve" smooth="yes"/>
      <point x="8.625999999999998" y="71.66" type="line"/>
      <point x="8.625999999999998" y="0.0" type="line"/>
      <point x="327.40999999999997" y="0.0" type="line"/>
      <point x="327.40999999999997" y="71.66" type="line"/>
      <point x="319.23199999999997" y="71.66" type="line" smooth="yes"/>
      <point x="302.68600000000004" y="71.66"/>
      <point x="277.374" y="73.80000000000001"/>
      <point x="277.374" y="79.94" type="curve" smooth="yes"/>
      <point x="277.374" y="564.12" type="line" smooth="yes"/>
      <point x="277.374" y="632.58"/>
      <point x="297.144" y="660.74"/>
      <point x="341.072" y="660.74" type="curve" smooth="yes"/>
      <point x="371.68" y="660.74"/>
      <point x="398.016" y="650.02"/>
      <point x="404.87600000000003" y="646.32" type="curve"/>
    </contour>
  </outline>
</glyph>
<glyph name="g" format="2">
  <advance width="558"/>
  <unicode hex="0067"/>
  <anchor x="226.35" y="545.0" name="top"/>
  <outline>
    <contour>
      <point x="255.51" y="240.82" type="curve" smooth="yes"/>
      <point x="239.73" y="240.82"/>
      <point x="232.41" y="268.48"/>
      <point x="232.41" y="340.74" type="curve" smooth="yes"/>
      <point x="232.41" y="413.86"/>
      <point x="239.53" y="443.65999999999997"/>
      <point x="255.51" y="443.65999999999997" type="curve" smooth="yes"/>
      <point x="273.126" y="443.65999999999997"/>
      <point x="279.61" y="413.86"/>
      <point x="279.61" y="340.74" type="curve" smooth="yes"/>
      <point x="279.61" y="268.48"/>
      <point x="273.126" y="240.82"/>
    </contour>
    <contour>
      <point x="255.51" y="165.62" type="curve" smooth="yes"/>
      <point x="396.486" y="165.62"/>
      <point x="487.332" y="231.46"/>
      <point x="487.332" y="342.46" type="curve" smooth="yes"/>
      <point x="487.332" y="453.32"/>
      <point x="396.68600000000004" y="523.16"/>
      <point x="255.51" y="523.16" type="curve" smooth="yes"/>
      <point x="115.534" y="523.16"/>
      <point x="26.524000000000004" y="453.32"/>
      <point x="26.524000000000004" y="342.46" type="curve" smooth="yes"/>
      <point x="26.524000000000004" y="231.46"/>
      <point x="113.24000000000001" y="165.62"/>
    </contour>
    <contour>
      <point x="421.80999999999995" y="406.84" type="line"/>
      <point x="451.688" y="414.04"/>
      <point x="502.11199999999997" y="408.74"/>
      <point x="555.49" y="392.28" type="curve"/>
      <point x="555.49" y="533.3" type="line"/>
      <point x="476.69399999999996" y="545.74"/>
      <point x="437.178" y="492.68"/>
      <point x="399.01599999999996" y="408.08" type="curve"/>
    </contour>
    <contour>
      <point x="267.678" y="-236.0" type="line" smooth="yes"/>
      <point x="437.308" y="-236.0"/>
      <point x="548.5120000000001" y="-172.4"/>
      <point x="548.5120000000001" y="-38.92" type="curve" smooth="yes"/>
      <point x="548.5120000000001" y="57.12"/>
      <point x="482.072" y="104.0"/>
      <point x="360.924" y="104.0" type="curve" smooth="yes"/>
      <point x="200.132" y="104.0" type="line" smooth="yes"/>
      <point x="171.878" y="104.0"/>
      <point x="162.958" y="113.42"/>
      <point x="162.958" y="134.54" type="curve" smooth="yes"/>
      <point x="162.958" y="158.1"/>
      <point x="181.998" y="175.94"/>
      <point x="220.18400000000003" y="189.92" type="curve"/>
      <point x="160.804" y="216.06" type="line"/>
      <point x="61.286" y="185.5"/>
      <point x="9.508000000000003" y="137.62"/>
      <point x="9.508000000000003" y="71.7" type="curve" smooth="yes"/>
      <point x="9.508000000000003" y="7.899999999999999"/>
      <point x="45.07" y="-29.839999999999996"/>
      <point x="104.696" y="-53.38" type="curve"/>
      <point x="109.498" y="-74.02" type="line"/>
      <point x="347.344" y="-74.02" type="line" smooth="yes"/>
      <point x="362.878" y="-74.02"/>
      <point x="367.938" y="-82.14"/>
      <point x="367.938" y="-100.5" type="curve" smooth="yes"/>
      <point x="367.938" y="-133.28"/>
      <point x="339.648" y="-157.07999999999998"/>
      <point x="259.876" y="-157.07999999999998" type="curve" smooth="yes"/>
      <point x="239.624" y="-157.07999999999998" type="line" smooth="yes"/>
      <point x="169.84199999999998" y="-157.07999999999998"/>
      <point x="141.176" y="-142.12"/>
      <point x="141.176" y="-109.6" type="curve" smooth="yes"/>
      <point x="141.176" y="-86.78"/>
      <point x="149.778" y="-71.68"/>
      <point x="175.30200000000002" y="-57.0" type="curve"/>
      <point x="138.34" y="-25.840000000000003" type="line"/>
      <point x="23.182000000000006" y="-46.36"/>
      <point x="-18.216" y="-72.48"/>
      <point x="-18.216" y="-123.92" type="curve" smooth="yes"/>
      <point x="-18.216" y="-207.16"/>
      <point x="69.59400000000001" y="-236.0"/>
      <point x="210.028" y="-236.0" type="curve" smooth="yes"/>
    </contour>
  </outline>
</glyph>
<glyph name="m" format="2">
  <advance width="848"/>
  <unicode hex="006D"/>
  <outline>
    <contour>
      <point x="9" y="0" type="line"/>
      <point x="270" y="0" type="line"/>
      <point x="270" y="72" type="line"/>
      <point x="267" y="72" type="line"/>
      <point x="264" y="72"/>
      <point x="261" y="74"/>
      <point x="261" y="80" type="curve" smooth="yes"/>
      <point x="261" y="405" type="line"/>
      <point x="248" y="394" type="line"/>
      <point x="248" y="513" type="line"/>
      <point x="9" y="513" type="line"/>
      <point x="9" y="438" type="line"/>
      <point x="15" y="436" type="line" smooth="yes"/>
      <point x="27" y="429"/>
      <point x="29" y="425"/>
      <point x="29" y="407" type="curve" smooth="yes"/>
      <point x="29" y="99" type="line"/>
      <point x="29" y="78"/>
      <point x="21" y="72"/>
      <point x="10" y="72" type="curve" smooth="yes"/>
      <point x="9" y="72" type="line"/>
    </contour>
    <contour>
      <point x="550" y="0" type="line"/>
      <point x="550" y="72" type="line"/>
      <point x="549" y="72" type="line"/>
      <point x="546" y="72"/>
      <point x="541" y="74"/>
      <point x="541" y="80" type="curve" smooth="yes"/>
      <point x="541" y="345" type="line" smooth="yes"/>
      <point x="541" y="461"/>
      <point x="485" y="523"/>
      <point x="396" y="523" type="curve" smooth="yes"/>
      <point x="323" y="523"/>
      <point x="265" y="477"/>
      <point x="239" y="396" type="curve"/>
      <point x="239" y="290" type="line"/>
      <point x="264" y="381"/>
      <point x="280" y="407"/>
      <point x="293" y="407" type="curve" smooth="yes"/>
      <point x="307" y="407"/>
      <point x="310" y="387"/>
      <point x="310" y="350" type="curve" smooth="yes"/>
      <point x="310" y="80" type="line" smooth="yes"/>
      <point x="310" y="74"/>
      <point x="306" y="72"/>
      <point x="301" y="72" type="curve"/>
      <point x="301" y="72" type="line"/>
      <point x="301" y="0" type="line"/>
    </contour>
    <contour>
      <point x="841" y="0" type="line"/>
      <point x="841" y="72" type="line"/>
      <point x="839" y="72" type="line" smooth="yes"/>
      <point x="830" y="72"/>
      <point x="821" y="78"/>
      <point x="821" y="99" type="curve"/>
      <point x="821" y="345" type="line" smooth="yes"/>
      <point x="821" y="461"/>
      <point x="765" y="523"/>
      <point x="677" y="523" type="curve" smooth="yes"/>
      <point x="605" y="523"/>
      <point x="547" y="478"/>
      <point x="520" y="397" type="curve"/>
      <point x="520" y="294" type="line"/>
      <point x="542" y="374"/>
      <point x="557" y="407"/>
      <point x="573" y="407" type="curve" smooth="yes"/>
      <point x="587" y="407"/>
      <point x="590" y="387"/>
      <point x="590" y="350" type="curve" smooth="yes"/>
      <point x="590" y="80" type="line" smooth="yes"/>
      <point x="590" y="74"/>
      <point x="587" y="72"/>
      <point x="582" y="72" type="curve"/>
      <point x="581" y="72" type="line"/>
      <point x="581" y="0" type="line"/>
    </contour>
  </outline>
</glyph>
<glyph name="p" format="2">
  <advance width="580"/>
  <unicode hex="0070"/>
  <outline>
    <contour>
      <point x="9" y="-223" type="line"/>
      <point x="299" y="-223" type="line"/>
      <point x="299" y="-151" type="line"/>
      <point x="302" y="-151" type="line"/>
      <point x="285" y="-151"/>
      <point x="260" y="-149"/>
      <point x="260" y="-143" type="curve" smooth="yes"/>
      <point x="260" y="396" type="line"/>
      <point x="248" y="373" type="line"/>
      <point x="248" y="513" type="line"/>
      <point x="9" y="513" type="line"/>
      <point x="9" y="438" type="line"/>
      <point x="15" y="436" type="line" smooth="yes"/>
      <point x="27" y="429"/>
      <point x="29" y="425"/>
      <point x="29" y="407" type="curve" smooth="yes"/>
      <point x="29" y="-124" type="line" smooth="yes"/>
      <point x="29" y="-145"/>
      <point x="20" y="-151"/>
      <point x="10" y="-151" type="curve" smooth="yes"/>
      <point x="9" y="-151" type="line"/>
    </contour>
    <contour>
      <point x="370" y="-10" type="curve" smooth="yes"/>
      <point x="483" y="-10"/>
      <point x="565" y="103"/>
      <point x="565" y="263" type="curve" smooth="yes"/>
      <point x="565" y="419"/>
      <point x="492" y="523"/>
      <point x="377" y="523" type="curve" smooth="yes"/>
      <point x="290" y="523"/>
      <point x="252" y="472"/>
      <point x="212" y="373" type="curve"/>
      <point x="212" y="260" type="line"/>
      <point x="252" y="370"/>
      <point x="264" y="416"/>
      <point x="292" y="416" type="curve" smooth="yes"/>
      <point x="320" y="416"/>
      <point x="330" y="363"/>
      <point x="330" y="263" type="curve" smooth="yes"/>
      <point x="330" y="161"/>
      <point x="319" y="97"/>
      <point x="284" y="97" type="curve" smooth="yes"/>
      <point x="251" y="97"/>
      <point x="242" y="141"/>
      <point x="212" y="233" type="curve"/>
      <point x="212" y="119" type="line"/>
      <point x="238" y="34"/>
      <point x="288" y="-10"/>
    </contour>
  </outline>
</glyph>
<glyph name="q" format="2">
  <advance width="581"/>
  <unicode hex="0071"/>
  <outline>
    <contour>
      <point x="281" y="-223" type="line"/>
      <point x="571" y="-223" type="line"/>
      <point x="571" y="-151" type="line"/>
      <point x="570" y="-151" type="line" smooth="yes"/>
      <point x="560" y="-151"/>
      <point x="551" y="-145"/>
      <point x="551" y="-124" type="curve" smooth="yes"/>
      <point x="551" y="514" type="line"/>
      <point x="418" y="514" type="line"/>
      <point x="341" y="400" type="line"/>
      <point x="320" y="402" type="line"/>
      <point x="320" y="-143" type="line" smooth="yes"/>
      <point x="320" y="-149"/>
      <point x="296" y="-151"/>
      <point x="278" y="-151" type="curve"/>
      <point x="281" y="-151" type="line"/>
    </contour>
    <contour>
      <point x="203" y="-10" type="curve" smooth="yes"/>
      <point x="290" y="-10"/>
      <point x="328" y="41"/>
      <point x="368" y="140" type="curve"/>
      <point x="368" y="253" type="line"/>
      <point x="328" y="143"/>
      <point x="316" y="97"/>
      <point x="288" y="97" type="curve" smooth="yes"/>
      <point x="260" y="97"/>
      <point x="250" y="150"/>
      <point x="250" y="250" type="curve" smooth="yes"/>
      <point x="250" y="352"/>
      <point x="261" y="416"/>
      <point x="296" y="416" type="curve" smooth="yes"/>
      <point x="324" y="416"/>
      <point x="336" y="374"/>
      <point x="361" y="282" type="curve"/>
      <point x="378" y="394" type="line"/>
      <point x="354" y="473"/>
      <point x="311" y="523"/>
      <point x="211" y="523" type="curve" smooth="yes"/>
      <point x="95" y="523"/>
      <point x="15" y="410"/>
      <point x="15" y="250" type="curve" smooth="yes"/>
      <point x="15" y="94"/>
      <point x="88" y="-10"/>
    </contour>
  </outline>
</glyph>
<glyph name="y" format="2">
  <advance width="515"/>
  <unicode hex="0079"/>
  <anchor x="250.85" y="551.0" name="top"/>
  <anchor x="258.44" y="-211.0" name="bottom"/>
  <outline>
    <contour>
      <point x="228" y="-71" type="line"/>
      <point x="266" y="17" type="line"/>
      <point x="344" y="141" type="line"/>
      <point x="263" y="432" type="line"/>
      <point x="263" y="440"/>
      <point x="279" y="442"/>
      <point x="299" y="442" type="curve" smooth="yes"/>
      <point x="299" y="442" type="line"/>
      <point x="299" y="513" type="line"/>
      <point x="7" y="513" type="line"/>
      <point x="7" y="442" type="line"/>
      <point x="8" y="442" type="line"/>
      <point x="26" y="442"/>
      <point x="28" y="434"/>
      <point x="39" y="406" type="curve" smooth="yes"/>
    </contour>
    <contour>
      <point x="120" y="-235" type="curve" smooth="yes"/>
      <point x="200" y="-235"/>
      <point x="259" y="-163"/>
      <point x="331" y="20" type="curve" smooth="yes"/>
      <point x="471" y="396" type="line" smooth="yes"/>
      <point x="483" y="429"/>
      <point x="490" y="442"/>
      <point x="507" y="442" type="curve"/>
      <point x="508" y="442" type="line"/>
      <point x="508" y="513" type="line"/>
      <point x="358" y="513" type="line"/>
      <point x="358" y="442" type="line"/>
      <point x="361" y="442" type="line" smooth="yes"/>
      <point x="379" y="442"/>
      <point x="395" y="432"/>
      <point x="395" y="420" type="curve"/>
      <point x="271" y="72.0" type="line"/>
      <point x="236" y="10" type="line"/>
      <point x="224" y="-58"/>
      <point x="201" y="-84"/>
      <point x="151" y="-84" type="curve" smooth="yes"/>
      <point x="100" y="-84"/>
      <point x="51" y="-59"/>
      <point x="42" y="-57" type="curve"/>
      <point x="42" y="-211" type="line"/>
      <point x="54" y="-223"/>
      <point x="83" y="-235"/>
    </contour>
  </outline>
</glyph>
<glyph name="z" format="2">
  <advance width="475"/>
  <unicode hex="007A"/>
  <anchor x="208" y="551.0" name="top"/>
  <anchor x="224" y="0.0" name="bottom"/>
  <outline>
    <contour>
      <point x="239" y="50" type="line"/>
      <point x="446" y="408" type="line"/>
      <point x="446" y="513" type="line"/>
      <point x="20" y="513" type="line"/>
      <point x="20" y="318" type="line"/>
      <point x="91" y="318" type="line"/>
      <point x="96" y="389" type="line" smooth="yes"/>
      <point x="100" y="425"/>
      <point x="117" y="432"/>
      <point x="164" y="432" type="curve" smooth="yes"/>
      <point x="311" y="432" type="line"/>
      <point x="234" y="465" type="line"/>
      <point x="21" y="108" type="line"/>
      <point x="21" y="0" type="line"/>
      <point x="463" y="0" type="line"/>
      <point x="463" y="214" type="line"/>
      <point x="390" y="214" type="line"/>
      <point x="384" y="128" type="line" smooth="yes"/>
      <point x="380" y="90"/>
      <point x="362" y="83"/>
      <point x="316" y="83" type="curve" smooth="yes"/>
      <point x="227" y="83" type="line"/>
    </contour>
  </outline>
</glyph>
<glyph name="braceleft" format="2">
  <advance width="325.704"/>
  <unicode hex="007B"/>
  <outline>
    <contour>
      <point x="274.538" y="220.98" type="curve" smooth="yes"/>
      <point x="274.538" y="263.28"/>
      <point x="257.26126096283787" y="293.96169080727685"/>
      <point x="157.69799999999998" y="307.6" type="curve"/>
      <point x="157.69799999999998" y="312.6" type="line"/>
      <point x="257.26126096283787" y="326.23830919272314"/>
      <point x="274.538" y="357.78"/>
      <point x="274.538" y="399.22" type="curve" smooth="yes"/>
      <point x="274.538" y="457.26"/>
      <point x="214.78200000000004" y="528.02"/>
      <point x="214.78200000000004" y="592.12" type="curve" smooth="yes"/>
      <point x="214.78200000000004" y="649.06"/>
      <point x="254.36909680069644" y="668.6185248061181"/>
      <point x="305.958" y="669.18" type="curve"/>
      <point x="289.43600000000004" y="749.0" type="line"/>
      <point x="166.40103068759618" y="758.6598483220253"/>
      <point x="39.198" y="736.76"/>
      <point x="39.198" y="610.72" type="curve" smooth="yes"/>
      <point x="39.198" y="525.0"/>
      <point x="93.776" y="456.28"/>
      <point x="148.566" y="359.6" type="curve"/>
      <point x="147.542" y="392.36" type="line"/>
      <point x="22.052" y="346.08" type="line"/>
      <point x="22.052" y="274.12" type="line"/>
      <point x="147.542" y="227.84" type="line"/>
      <point x="148.566" y="260.6" type="line"/>
      <point x="93.776" y="163.92"/>
      <point x="39.198" y="95.2"/>
      <point x="39.198" y="9.48" type="curve" smooth="yes"/>
      <point x="39.198" y="-116.56"/>
      <point x="166.40103068759618" y="-138.45984832202527"/>
      <point x="289.43600000000004" y="-128.8" type="curve"/>
      <point x="305.958" y="-48.980000000000004" type="line"/>
      <point x="254.36909680069644" y="-48.41852480611804"/>
      <point x="214.78200000000004" y="-28.86"/>
      <point x="214.78200000000004" y="28.080000000000005" type="curve" smooth="yes"/>
      <point x="214.78200000000004" y="92.18"/>
      <point x="274.538" y="162.94"/>
    </contour>
  </outline>
</glyph>
<glyph name="yen" format="2">
  <advance width="467.88"/>
  <unicode hex="00A5"/>
  <outline>
    <contour>
      <point x="34.138000000000005" y="373.78" type="line"/>
      <point x="34.138000000000005" y="280.5" type="line"/>
      <point x="436.908" y="280.5" type="line"/>
      <point x="436.908" y="373.78" type="line"/>
    </contour>
    <contour>
      <point x="34.138000000000005" y="242.06" type="line"/>
      <point x="34.138000000000005" y="148.78" type="line"/>
      <point x="436.908" y="148.78" type="line"/>
      <point x="436.908" y="242.06" type="line"/>
    </contour>
    <contour>
      <point x="8.296" y="710.0" type="line"/>
      <point x="8.296" y="632.9" type="line"/>
      <point x="10.52" y="632.9" type="line" smooth="yes"/>
      <point x="19.439999999999998" y="632.9"/>
      <point x="23.300000000000004" y="628.46"/>
      <point x="31.278000000000006" y="606.9" type="curve" smooth="yes"/>
      <point x="131.25600000000003" y="330.04" type="line"/>
      <point x="342.626" y="328.32" type="line"/>
      <point x="430.212" y="591.9" type="line" smooth="yes"/>
      <point x="442.05" y="626.32"/>
      <point x="447.24" y="632.9"/>
      <point x="458.56" y="632.9" type="curve" smooth="yes"/>
      <point x="459.584" y="632.9" type="line"/>
      <point x="459.584" y="710.0" type="line"/>
      <point x="335.8" y="710.0" type="line"/>
      <point x="335.8" y="632.9" type="line"/>
      <point x="335.106" y="632.9" type="line" smooth="yes"/>
      <point x="346.45" y="632.9"/>
      <point x="353.746" y="625.9"/>
      <point x="353.746" y="614.9" type="curve"/>
      <point x="281.128" y="381.78" type="line"/>
      <point x="332.58799999999997" y="399.84000000000003" type="line"/>
      <point x="264.04200000000003" y="622.9" type="line"/>
      <point x="264.04200000000003" y="629.9"/>
      <point x="269.196" y="632.9"/>
      <point x="279.01" y="632.9" type="curve" smooth="yes"/>
      <point x="282.246" y="632.9" type="line"/>
      <point x="282.246" y="710.0" type="line"/>
    </contour>
    <contour>
      <point x="77.878" y="0.0" type="line"/>
      <point x="393.73199999999997" y="0.0" type="line"/>
      <point x="393.73199999999997" y="77.1" type="line"/>
      <point x="382.024" y="77.1" type="line" smooth="yes"/>
      <point x="366.50199999999995" y="77.1"/>
      <point x="354.264" y="84.1"/>
      <point x="354.264" y="113.1" type="curve" smooth="yes"/>
      <point x="354.264" y="375.04" type="line"/>
      <point x="116.78200000000001" y="375.04" type="line"/>
      <point x="116.78200000000001" y="113.1" type="line" smooth="yes"/>
      <point x="116.78200000000001" y="84.1"/>
      <point x="105.108" y="77.1"/>
      <point x="89.02199999999999" y="77.1" type="curve" smooth="yes"/>
      <point x="77.878" y="77.1" type="line"/>
    </contour>
  </outline>
</glyph>
<glyph name="copyright" format="2">
  <advance width="720.472"/>
  <unicode hex="00A9"/>
  <outline>
    <contour>
      <point x="390.12" y="490.48" type="curve" smooth="yes"/>
      <point x="418.444" y="490.48"/>
      <point x="439.72" y="456.08"/>
      <point x="446.428" y="406.26" type="curve"/>
      <point x="506.748" y="406.26" type="line"/>
      <point x="506.748" y="550.28" type="line"/>
      <point x="454.324" y="550.28" type="line"/>
      <point x="449.334" y="444.98" type="line"/>
      <point x="454.9" y="434.38"/>
      <point x="458.266" y="441.72"/>
      <point x="482.072" y="420.52" type="curve"/>
      <point x="469.786" y="519.0"/>
      <point x="429.776" y="561.28"/>
      <point x="356.488" y="561.28" type="curve" smooth="yes"/>
      <point x="262.288" y="561.28"/>
      <point x="187.164" y="476.0"/>
      <point x="187.164" y="354.0" type="curve" smooth="yes"/>
      <point x="187.164" y="231.0"/>
      <point x="261.594" y="148.72"/>
      <point x="368.126" y="148.72" type="curve" smooth="yes"/>
      <point x="444.074" y="148.72"/>
      <point x="499.394" y="207.26"/>
      <point x="512.432" y="288.12" type="curve"/>
      <point x="462.302" y="316.15999999999997" type="line"/>
      <point x="453.394" y="259.18"/>
      <point x="428.38800000000003" y="220.38"/>
      <point x="393.544" y="220.38" type="curve" smooth="yes"/>
      <point x="351.828" y="220.38"/>
      <point x="336.918" y="271.4953829268166"/>
      <point x="336.918" y="354.0" type="curve" smooth="yes"/>
      <point x="336.918" y="440.9194385541972"/>
      <point x="350.286" y="490.48"/>
    </contour>
    <contour>
      <point x="113.652" y="355.0" type="curve" smooth="yes"/>
      <point x="113.652" y="530.68"/>
      <point x="211.276" y="667.36"/>
      <point x="360.01800000000003" y="667.36" type="curve" smooth="yes"/>
      <point x="508.196" y="667.36"/>
      <point x="606.82" y="530.68"/>
      <point x="606.82" y="355.0" type="curve" smooth="yes"/>
      <point x="606.82" y="179.32"/>
      <point x="508.16738650310003" y="42.63999999999999"/>
      <point x="360.01800000000003" y="42.63999999999999" type="curve" smooth="yes"/>
      <point x="211.276" y="42.63999999999999"/>
      <point x="113.652" y="179.2961500000318"/>
    </contour>
    <contour>
      <point x="23.676000000000002" y="355.0" type="curve" smooth="yes"/>
      <point x="23.676000000000002" y="132.84"/>
      <point x="164.452" y="-38.32"/>
      <point x="360.01800000000003" y="-38.32" type="curve" smooth="yes"/>
      <point x="556.678" y="-38.32"/>
      <point x="697.36" y="132.84"/>
      <point x="697.36" y="355.0" type="curve" smooth="yes"/>
      <point x="697.36" y="577.16"/>
      <point x="556.678" y="748.32"/>
      <point x="360.01800000000003" y="748.32" type="curve" smooth="yes"/>
      <point x="164.452" y="748.32"/>
      <point x="23.676000000000002" y="577.16"/>
    </contour>
  </outline>
</glyph>
<glyph name="degree" format="2">
  <advance width="425.58799999999997"/>
  <unicode hex="00B0"/>
  <outline>
    <contour>
      <point x="278.01" y="530.08" type="curve" smooth="yes"/>
      <point x="278.01" y="474.3448000001696"/>
      <point x="252.474" y="437.72"/>
      <point x="212.79399999999998" y="437.72" type="curve" smooth="yes"/>
      <point x="174.87800000000001" y="437.72"/>
      <point x="147.578" y="474.3448000001696"/>
      <point x="147.578" y="530.08" type="curve" smooth="yes"/>
      <point x="147.578" y="587.566999999894"/>
      <point x="174.878" y="622.44"/>
      <point x="212.79399999999998" y="622.44" type="curve" smooth="yes"/>
      <point x="252.474" y="622.44"/>
      <point x="278.01" y="587.566999999894"/>
    </contour>
    <contour>
      <point x="30.89" y="530.08" type="curve" smooth="yes"/>
      <point x="30.89" y="411.9"/>
      <point x="112.404" y="331.15999999999997"/>
      <point x="212.79399999999998" y="331.15999999999997" type="curve" smooth="yes"/>
      <point x="313.74800000000005" y="331.15999999999997"/>
      <point x="395.26200000000006" y="411.9"/>
      <point x="395.26200000000006" y="530.08" type="curve" smooth="yes"/>
      <point x="395.26200000000006" y="648.26"/>
      <point x="313.74800000000005" y="729.0"/>
      <point x="212.79399999999998" y="729.0" type="curve" smooth="yes"/>
      <point x="112.404" y="729.0"/>
      <point x="30.89" y="648.26"/>
    </contour>
  </outline>
</glyph>
<glyph name="Oslash" format="2">
  <advance width="683.498"/>
  <unicode hex="00D8"/>
  <anchor x="330.67" y="731.0" name="top"/>
  <outline>
    <contour>
      <point x="571.188" y="725.0" type="line"/>
      <point x="-23.206" y="-15.0" type="line"/>
      <point x="87.904" y="-15.0" type="line"/>
      <point x="682.298" y="725.0" type="line"/>
    </contour>
    <contour>
      <point x="341.978" y="-10.0" type="curve" smooth="yes"/>
      <point x="533.308" y="-10.0"/>
      <point x="663.234" y="133.84"/>
      <point x="663.234" y="355.0" type="curve" smooth="yes"/>
      <point x="663.234" y="576.3"/>
      <point x="513.2560000000001" y="720.0"/>
      <point x="341.978" y="720.0" type="curve" smooth="yes"/>
      <point x="150.084" y="720.0"/>
      <point x="20.064" y="576.3"/>
      <point x="20.064" y="355.0" type="curve" smooth="yes"/>
      <point x="20.064" y="133.84"/>
      <point x="174.372" y="-10.0"/>
    </contour>
    <contour>
      <point x="336.54200000000003" y="84.39999999999999" type="curve" smooth="yes"/>
      <point x="279.93951724116" y="84.39999999999999"/>
      <point x="257.95799999999997" y="166.06"/>
      <point x="257.95799999999997" y="355.0" type="curve" smooth="yes"/>
      <point x="257.95799999999997" y="532.54"/>
      <point x="288.30476190456" y="625.6"/>
      <point x="346.85" y="625.6" type="curve" smooth="yes"/>
      <point x="404.01648275883997" y="625.6"/>
      <point x="425.34000000000003" y="543.94"/>
      <point x="425.34000000000003" y="355.0" type="curve" smooth="yes"/>
      <point x="425.34000000000003" y="177.46"/>
      <point x="395.28723809544" y="84.39999999999999"/>
    </contour>
  </outline>
</glyph>
<glyph name="Tbar" format="2">
  <advance width="648.336"/>
  <unicode hex="0166"/>
  <outline>
    <contour>
      <point x="79.902" y="355.92" type="line"/>
      <point x="568.434" y="355.92" type="line"/>
      <point x="568.434" y="262.64" type="line"/>
      <point x="79.902" y="262.64" type="line"/>
    </contour>
    <component base="T" xOffset="-54.99"/>
  </outline>
</glyph>
<glyph name="ring" format="2">
  <advance width="417.28"/>
  <unicode hex="02DA"/>
  <anchor x="208.64" y="526.0" name="_top"/>
  <outline>
    <contour>
      <point x="183.492" y="663.12" type="curve" smooth="yes"/>
      <point x="183.492" y="694.8"/>
      <point x="195.06" y="708.92"/>
      <point x="208.64" y="708.92" type="curve" smooth="yes"/>
      <point x="223.89" y="708.92"/>
      <point x="234.258" y="694.8"/>
      <point x="234.258" y="663.12" type="curve" smooth="yes"/>
      <point x="234.258" y="632.3"/>
      <point x="224.526" y="617.32"/>
      <point x="208.64" y="617.32" type="curve" smooth="yes"/>
      <point x="194.424" y="617.32"/>
      <point x="183.492" y="632.3"/>
    </contour>
    <contour>
      <point x="337.142" y="663.12" type="curve" smooth="yes"/>
      <point x="337.142" y="736.3"/>
      <point x="283.95658741279203" y="772.3"/>
      <point x="208.64" y="772.3" type="curve" smooth="yes"/>
      <point x="133.793412587208" y="772.3"/>
      <point x="80.608" y="736.3"/>
      <point x="80.608" y="663.12" type="curve" smooth="yes"/>
      <point x="80.608" y="589.94"/>
      <point x="133.793412587208" y="553.94"/>
      <point x="208.64" y="553.94" type="curve" smooth="yes"/>
      <point x="283.95658741279203" y="553.94"/>
      <point x="337.142" y="589.94"/>
    </contour>
  </outline>
</glyph>
<glyph name="pi" format="2">
  <advance width="728.9680000000001"/>
  <unicode hex="03C0"/>
  <outline>
    <contour>
      <point x="355.664" y="0.0" type="line"/>
      <point x="355.664" y="452.2" type="line"/>
      <point x="216.32399999999998" y="452.2" type="line"/>
      <point x="208.934" y="196.82"/>
      <point x="176.714" y="173.68"/>
      <point x="176.714" y="0.0" type="curve"/>
    </contour>
    <contour>
      <point x="663.858" y="360.92" type="line"/>
      <point x="663.858" y="513.16" type="line"/>
      <point x="247.532" y="513.16" type="line" smooth="yes"/>
      <point x="93.682" y="513.16"/>
      <point x="39.81" y="424.66"/>
      <point x="13.368000000000002" y="305.16" type="curve"/>
      <point x="123.85399999999998" y="251.8" type="line"/>
      <point x="138.65800000000002" y="317.92"/>
      <point x="156.568" y="360.92"/>
      <point x="225.644" y="360.92" type="curve" smooth="yes"/>
    </contour>
    <contour>
      <point x="562.774" y="147.0" type="curve" smooth="yes"/>
      <point x="562.774" y="452.2" type="line"/>
      <point x="422.504" y="452.2" type="line"/>
      <point x="408.948" y="279.86"/>
      <point x="379.58799999999997" y="215.44"/>
      <point x="379.58799999999997" y="147.0" type="curve" smooth="yes"/>
      <point x="379.58799999999997" y="39.34"/>
      <point x="452.1" y="-10.0"/>
      <point x="543.11" y="-10.0" type="curve" smooth="yes"/>
      <point x="628.402" y="-10.0"/>
      <point x="679.144" y="43.18"/>
      <point x="704.656" y="133.45999999999998" type="curve"/>
      <point x="632.638" y="172.06" type="line"/>
      <point x="618.9879999999999" y="129.02"/>
      <point x="605.62" y="98.0"/>
      <point x="587.192" y="98.0" type="curve" smooth="yes"/>
      <point x="571.494" y="98.0"/>
      <point x="562.774" y="111.0"/>
    </contour>
  </outline>
</glyph>
<glyph name="perthousand" format="2">
  <advance width="961.0600000000001"/>
  <unicode hex="2030"/>
  <outline>
    <contour>
      <point x="158.568" y="444.48" type="curve" smooth="yes"/>
      <point x="147.766" y="444.48"/>
      <point x="140.988" y="466.96"/>
      <point x="140.988" y="546.7" type="curve" smooth="yes"/>
      <point x="140.988" y="625.58"/>
      <point x="147.766" y="647.2"/>
      <point x="158.568" y="647.2" type="curve" smooth="yes"/>
      <point x="168.712" y="647.2"/>
      <point x="175.49" y="625.58"/>
      <point x="175.49" y="546.7" type="curve" smooth="yes"/>
      <point x="175.49" y="466.96"/>
      <point x="168.712" y="444.48"/>
    </contour>
    <contour>
      <point x="158.568" y="373.4" type="curve" smooth="yes"/>
      <point x="251.58" y="373.4"/>
      <point x="317.608" y="447.12"/>
      <point x="317.608" y="546.7" type="curve" smooth="yes"/>
      <point x="317.608" y="647.28"/>
      <point x="251.58" y="720.0"/>
      <point x="158.568" y="720.0" type="curve" smooth="yes"/>
      <point x="64.898" y="720.0"/>
      <point x="-1.1299999999999955" y="646.28"/>
      <point x="-1.1299999999999955" y="546.7" type="curve" smooth="yes"/>
      <point x="-1.1299999999999955" y="446.12"/>
      <point x="64.898" y="373.4"/>
    </contour>
    <contour>
      <point x="131.26800000000003" y="0.0" type="line"/>
      <point x="609.656" y="710.0" type="line"/>
      <point x="497.028" y="710.0" type="line"/>
      <point x="18.64" y="0.0" type="line"/>
    </contour>
    <contour>
      <point x="474.47" y="61.080000000000005" type="curve" smooth="yes"/>
      <point x="464.326" y="61.080000000000005"/>
      <point x="457.548" y="83.56"/>
      <point x="457.548" y="163.3" type="curve" smooth="yes"/>
      <point x="457.548" y="242.18"/>
      <point x="464.326" y="263.8"/>
      <point x="474.47" y="263.8" type="curve" smooth="yes"/>
      <point x="485.178" y="263.8"/>
      <point x="491.392" y="242.18"/>
      <point x="491.392" y="163.3" type="curve" smooth="yes"/>
      <point x="491.392" y="83.56"/>
      <point x="485.178" y="61.080000000000005"/>
    </contour>
    <contour>
      <point x="474.47" y="-10.0" type="curve" smooth="yes"/>
      <point x="568.14" y="-10.0"/>
      <point x="634.074" y="63.72"/>
      <point x="634.074" y="163.3" type="curve" smooth="yes"/>
      <point x="634.074" y="263.88"/>
      <point x="568.14" y="336.6"/>
      <point x="474.47" y="336.6" type="curve" smooth="yes"/>
      <point x="380.8" y="336.6"/>
      <point x="314.866" y="262.88"/>
      <point x="314.866" y="163.3" type="curve" smooth="yes"/>
      <point x="314.866" y="62.72"/>
      <point x="380.8" y="-10.0"/>
    </contour>
    <contour>
      <point x="802.586" y="61.080000000000005" type="curve" smooth="yes"/>
      <point x="792.442" y="61.080000000000005"/>
      <point x="785.664" y="83.56"/>
      <point x="785.664" y="163.3" type="curve" smooth="yes"/>
      <point x="785.664" y="242.18"/>
      <point x="792.442" y="263.8"/>
      <point x="802.586" y="263.8" type="curve" smooth="yes"/>
      <point x="812.73" y="263.8"/>
      <point x="819.508" y="242.18"/>
      <point x="819.508" y="163.3" type="curve" smooth="yes"/>
      <point x="819.508" y="83.56"/>
      <point x="812.73" y="61.080000000000005"/>
    </contour>
    <contour>
      <point x="802.586" y="-10.0" type="curve" smooth="yes"/>
      <point x="896.256" y="-10.0"/>
      <point x="962.19" y="63.72"/>
      <point x="962.19" y="163.3" type="curve" smooth="yes"/>
      <point x="962.19" y="263.88"/>
      <point x="896.256" y="336.6"/>
      <point x="802.586" y="336.6" type="curve" smooth="yes"/>
      <point x="708.9159999999999" y="336.6"/>
      <point x="642.982" y="262.88"/>
      <point x="642.982" y="163.3" type="curve" smooth="yes"/>
      <point x="642.982" y="62.72"/>
      <point x="708.9159999999999" y="-10.0"/>
    </contour>
  </outline>
</glyph>
<glyph name="guilsinglleft" format="2">
  <advance width="295.32"/>
  <unicode hex="2039"/>
  <outline>
    <contour>
      <point x="190.082" y="217.3" type="line"/>
      <point x="272.11400000000003" y="463.6" type="line"/>
      <point x="172.348" y="463.6" type="line"/>
      <point x="23.676000000000005" y="289.3" type="line"/>
      <point x="23.676000000000005" y="240.7" type="line"/>
      <point x="172.348" y="66.4" type="line"/>
      <point x="272.11400000000003" y="66.4" type="line"/>
      <point x="191.082" y="308.7" type="line"/>
    </contour>
  </outline>
</glyph>
<glyph name="fraction" format="2">
  <advance width="354.534"/>
  <unicode hex="2044"/>
  <outline>
    <contour>
      <point x="357.912" y="710.0" type="line"/>
      <point x="-120.006" y="0.0" type="line"/>
      <point x="-7.284000000000013" y="0.0" type="line"/>
      <point x="471.10400000000004" y="710.0" type="line"/>
    </contour>
  </outline>
</glyph>
<glyph name="won" format="2">
  <advance width="469.08000000000004"/>
  <unicode hex="20A9"/>
  <outline>
    <contour>
      <point x="10.638000000000002" y="710.0" type="line"/>
      <point x="10.638000000000002" y="632.9" type="line"/>
      <point x="17.003999999999998" y="632.9" type="line" smooth="yes"/>
      <point x="25.3" y="632.9"/>
      <point x="32.102000000000004" y="627.32"/>
      <point x="32.796" y="603.64" type="curve" smooth="yes"/>
      <point x="50.54200000000001" y="0.0" type="line"/>
      <point x="214.92399999999998" y="0.0" type="line"/>
      <point x="241.024" y="683.0" type="line"/>
      <point x="231.10399999999998" y="689.0" type="line"/>
      <point x="243.66" y="0.0" type="line"/>
      <point x="407.91200000000003" y="0.0" type="line"/>
      <point x="431.41200000000003" y="589.9" type="line" smooth="yes"/>
      <point x="432.942" y="623.04"/>
      <point x="440.544" y="632.9"/>
      <point x="453.276" y="632.9" type="curve" smooth="yes"/>
      <point x="458.442" y="632.9" type="line"/>
      <point x="458.442" y="710.0" type="line"/>
      <point x="352.11" y="710.0" type="line"/>
      <point x="352.11" y="632.9" type="line"/>
      <point x="354.876" y="632.9" type="line" smooth="yes"/>
      <point x="360.03" y="632.9"/>
      <point x="368.126" y="629.34"/>
      <point x="368.126" y="621.78" type="curve"/>
      <point x="344.85" y="20.0" type="line"/>
      <point x="353.252" y="25.0" type="line"/>
      <point x="334.09400000000005" y="710.0" type="line"/>
      <point x="180.268" y="710.0" type="line"/>
      <point x="154.732" y="12.0" type="line"/>
      <point x="162.416" y="15.0" type="line"/>
      <point x="145.74200000000002" y="622.9" type="line"/>
      <point x="145.74200000000002" y="629.9"/>
      <point x="151.89600000000002" y="632.9"/>
      <point x="156.262" y="632.9" type="curve" smooth="yes"/>
      <point x="162.416" y="632.9" type="line"/>
      <point x="162.416" y="710.0" type="line"/>
    </contour>
    <contour>
      <point x="8.802000000000003" y="473.34000000000003" type="line"/>
      <point x="8.802000000000003" y="391.24" type="line"/>
      <point x="127.596" y="391.24" type="line"/>
      <point x="145.23600000000002" y="415.32" type="line"/>
      <point x="189.894" y="415.32" type="line"/>
      <point x="194.448" y="473.34000000000003" type="line"/>
    </contour>
    <contour>
      <point x="297.53200000000004" y="415.32" type="line"/>
      <point x="376.422" y="415.32" type="line"/>
      <point x="400.134" y="391.24" type="line"/>
      <point x="460.278" y="391.24" type="line"/>
      <point x="460.278" y="473.34000000000003" type="line"/>
      <point x="292.978" y="473.34000000000003" type="line"/>
    </contour>
    <contour>
      <point x="193.412" y="246.46" type="line"/>
      <point x="290.224" y="246.46" type="line"/>
      <point x="296.108" y="304.48" type="line"/>
      <point x="207.60399999999998" y="304.48" type="line"/>
    </contour>
    <contour>
      <point x="112.02799999999999" y="318.24" type="line"/>
      <point x="8.802000000000003" y="318.24" type="line"/>
      <point x="8.802000000000003" y="236.14" type="line"/>
      <point x="115.64" y="236.14" type="line"/>
    </contour>
    <contour>
      <point x="383.706" y="236.14" type="line"/>
      <point x="460.278" y="236.14" type="line"/>
      <point x="460.278" y="318.24" type="line"/>
      <point x="400.134" y="318.24" type="line"/>
    </contour>
  </outline>
</glyph>
<glyph name="Euro" format="2">
  <advance width="467.88"/>
  <unicode hex="20AC"/>
  <outline>
    <contour>
      <point x="6.402" y="471.64" type="line"/>
      <point x="6.402" y="382.1" type="line"/>
      <point x="370.456" y="382.1" type="line"/>
      <point x="370.456" y="471.64" type="line"/>
    </contour>
    <contour>
      <point x="6.402" y="315.78" type="line"/>
      <point x="6.402" y="226.24" type="line"/>
      <point x="338.65999999999997" y="226.24" type="line"/>
      <point x="338.65999999999997" y="315.78" type="line"/>
    </contour>
    <contour>
      <point x="285.27000000000004" y="-10.0" type="curve" smooth="yes"/>
      <point x="392.226" y="-10.0"/>
      <point x="444.404" y="60.86"/>
      <point x="468.704" y="162.0" type="curve"/>
      <point x="392.45" y="203.9" type="line"/>
      <point x="380.282" y="148.82"/>
      <point x="352.746" y="88.98"/>
      <point x="317.09000000000003" y="88.98" type="curve" smooth="yes"/>
      <point x="276.762" y="88.98"/>
      <point x="262.11199999999997" y="162.66"/>
      <point x="262.11199999999997" y="355.0" type="curve" smooth="yes"/>
      <point x="262.11199999999997" y="553.92"/>
      <point x="266.13599999999997" y="625.32"/>
      <point x="297.956" y="625.32" type="curve" smooth="yes"/>
      <point x="306.052" y="625.32"/>
      <point x="312.348" y="612.8"/>
      <point x="317.478" y="598.42" type="curve"/>
      <point x="345.838" y="612.7"/>
      <point x="355.566183505952" y="628.7909004551836"/>
      <point x="299.886" y="643.1" type="curve"/>
      <point x="299.886" y="538.82" type="line"/>
      <point x="459.89" y="538.82" type="line"/>
      <point x="459.89" y="675.58" type="line"/>
      <point x="443.25" y="689.28"/>
      <point x="390.708" y="720.0"/>
      <point x="300.99199999999996" y="720.0" type="curve" smooth="yes"/>
      <point x="149.39000000000001" y="720.0"/>
      <point x="38.586000000000006" y="610.72"/>
      <point x="38.586000000000006" y="355.0" type="curve" smooth="yes"/>
      <point x="38.586000000000006" y="102.0"/>
      <point x="136.304" y="-10.0"/>
    </contour>
  </outline>
</glyph>
<glyph name="arrowleft" format="2">
  <advance width="617.27"/>
  <unicode hex="2190"/>
  <outline>
    <contour>
      <point x="344.85" y="560.0" type="line"/>
      <point x="46.07" y="360.0" type="line"/>
      <point x="46.07" y="346.0" type="line"/>
      <point x="344.85" y="146.0" type="line"/>
      <point x="353.44" y="159.0" type="line"/>
      <point x="237.47" y="324.0" type="line"/>
      <point x="571.67" y="324.0" type="line"/>
      <point x="571.67" y="382.0" type="line"/>
      <point x="237.47" y="382.0" type="line"/>
      <point x="353.44" y="547.0" type="line"/>
    </contour>
  </outline>
</glyph>
<glyph name="uni25B5" format="2">
  <advance width="696.76"/>
  <unicode hex="25B5"/>
  <outline>
    <contour>
      <point x="16.71" y="0.0" type="line"/>
      <point x="680.05" y="0.0" type="line"/>
      <point x="348.38" y="715.0" type="line"/>
    </contour>
    <contour>
      <point x="95.2" y="63.0" type="line"/>
      <point x="101.79" y="44.0" type="line"/>
      <point x="353.44" y="592.0" type="line"/>
      <point x="343.32" y="592.0" type="line"/>
      <point x="594.97" y="44.0" type="line"/>
      <point x="601.56" y="63.0" type="line"/>
    </contour>
  </outline>
</glyph>
<glyph name="lozenge" format="2">
  <advance width="529.284"/>
  <unicode hex="25CA"/>
  <outline>
    <contour>
      <point x="296.65" y="99.82" type="line"/>
      <point x="133.774" y="405.14" type="line"/>
      <point x="133.774" y="304.0" type="line"/>
      <point x="296.65" y="609.32" type="line"/>
      <point x="230.704" y="611.04" type="line"/>
      <point x="396.074" y="304.0" type="line"/>
      <point x="396.074" y="405.14" type="line"/>
      <point x="230.704" y="98.1" type="line"/>
    </contour>
    <contour>
      <point x="318.302" y="710.0" type="line"/>
      <point x="211.546" y="710.0" type="line"/>
      <point x="38.292" y="398.64" type="line"/>
      <point x="38.292" y="310.5" type="line"/>
      <point x="211.546" y="-0.86" type="line"/>
      <point x="318.302" y="-0.86" type="line"/>
      <point x="491.55600000000004" y="310.5" type="line"/>
      <point x="491.55600000000004" y="398.64" type="line"/>
    </contour>
  </outline>
</glyph>
<glyph name="uni27F7" format="2">
  <advance width="1085.15"/>
  <unicode hex="27F7"/>
  <outline>
    <contour>
      <point x="848.15" y="324.0" type="line"/>
      <point x="773.72" y="192.0" type="line"/>
      <point x="781.84" y="179.0" type="line"/>
      <point x="1039.55" y="346.0" type="line"/>
      <point x="1039.55" y="360.0" type="line"/>
      <point x="781.84" y="527.0" type="line"/>
      <point x="773.72" y="514.0" type="line"/>
      <point x="848.15" y="382.0" type="line"/>
      <point x="237.47" y="382.0" type="line"/>
      <point x="311.43" y="514.0" type="line"/>
      <point x="303.31" y="527.0" type="line"/>
      <point x="46.07" y="360.0" type="line"/>
      <point x="46.07" y="346.0" type="line"/>
      <point x="303.31" y="179.0" type="line"/>
      <point x="311.43" y="192.0" type="line"/>
      <point x="237.47" y="324.0" type="line"/>
    </contour>
  </outline>
</glyph>
<glyph name="F.alt" format="2">
  <advance width="525.588"/>
  <outline>
    <contour>
      <point x="14.392" y="0.0" type="line"/>
      <point x="351.322" y="0.0" type="line"/>
      <point x="351.322" y="77.1" type="line"/>
      <point x="337.142" y="77.1" type="line" smooth="yes"/>
      <point x="319.408" y="77.1"/>
      <point x="297.12" y="78.1"/>
      <point x="297.12" y="113.1" type="curve" smooth="yes"/>
      <point x="297.12" y="622.62" type="line"/>
      <point x="341.508" y="622.62" type="line" smooth="yes"/>
      <point x="376.43399999999997" y="622.62"/>
      <point x="404.594" y="615.62"/>
      <point x="408.124" y="579.62" type="curve" smooth="yes"/>
      <point x="412.678" y="517.14" type="line"/>
      <point x="509.69000000000005" y="517.14" type="line"/>
      <point x="509.69000000000005" y="710.0" type="line"/>
      <point x="14.392" y="710.0" type="line"/>
      <point x="14.392" y="632.9" type="line"/>
      <point x="22.876" y="632.9" type="line" smooth="yes"/>
      <point x="39.598000000000006" y="632.9"/>
      <point x="51.74199999999999" y="625.9"/>
      <point x="51.74199999999999" y="596.9" type="curve" smooth="yes"/>
      <point x="51.74199999999999" y="113.1" type="line" smooth="yes"/>
      <point x="51.74199999999999" y="84.1"/>
      <point x="39.598000000000006" y="77.1"/>
      <point x="22.876" y="77.1" type="curve" smooth="yes"/>
      <point x="14.392" y="77.1" type="line"/>
    </contour>
    <contour>
      <point x="233.75199999999998" y="312.96" type="line"/>
      <point x="337.53000000000003" y="312.96" type="line" smooth="yes"/>
      <point x="361.924" y="312.96"/>
      <point x="368.75" y="290.56"/>
      <point x="368.75" y="265.16" type="curve" smooth="yes"/>
      <point x="368.75" y="259.16" type="line"/>
      <point x="444.49800000000005" y="259.16" type="line"/>
      <point x="444.49800000000005" y="451.28" type="line"/>
      <point x="368.75" y="451.28" type="line"/>
      <point x="368.75" y="445.28" type="line" smooth="yes"/>
      <point x="368.75" y="419.74"/>
      <point x="361.924" y="396.48"/>
      <point x="337.53000000000003" y="396.48" type="curve" smooth="yes"/>
      <point x="233.75199999999998" y="396.48" type="line"/>
    </contour>
  </outline>
</glyph>
<glyph name="breve_tilde" format="2">
  <advance width="415.562"/>
  <anchor x="213.17" y="524.0" name="_top"/>
  <outline>
    <contour>
      <point x="266.666" y="764.0" type="curve" smooth="yes"/>
      <point x="329.952" y="764.0"/>
      <point x="368.856" y="816.46"/>
      <point x="384.236" y="896.92" type="curve"/>
      <point x="302.18" y="926.82" type="line"/>
      <point x="294.896" y="895.7"/>
      <point x="286.812" y="880.16"/>
      <point x="266.548" y="880.16" type="curve" smooth="yes"/>
      <point x="234.328" y="880.16"/>
      <point x="213.676" y="924.68"/>
      <point x="148.672" y="924.68" type="curve" smooth="yes"/>
      <point x="77.184" y="924.68"/>
      <point x="46.176" y="875.22"/>
      <point x="32.79599999999999" y="792.48" type="curve"/>
      <point x="114.946" y="764.44" type="line"/>
      <point x="120.9" y="795.98"/>
      <point x="128.42000000000002" y="810.38"/>
      <point x="148.048" y="810.38" type="curve" smooth="yes"/>
      <point x="178.244" y="810.38"/>
      <point x="194.13" y="764.0"/>
    </contour>
    <contour>
      <point x="207.734" y="559.36" type="curve" smooth="yes"/>
      <point x="114.828" y="559.36"/>
      <point x="50.74199999999999" y="620.12"/>
      <point x="54.59" y="725.16" type="curve"/>
      <point x="152.096" y="725.16" type="line"/>
      <point x="155.756" y="685.06"/>
      <point x="179.056" y="674.8"/>
      <point x="210.264" y="674.8" type="curve" smooth="yes"/>
      <point x="242.036" y="674.8"/>
      <point x="264.336" y="685.06"/>
      <point x="268.56" y="725.16" type="curve"/>
      <point x="361.536" y="725.16" type="line"/>
      <point x="365.384" y="620.12"/>
      <point x="300.568" y="559.36"/>
    </contour>
  </outline>
</glyph>
<glyph name="breve_tilde.uc" format="2">
  <advance width="417.75"/>
  <anchor x="235.47" y="694.0" name="_top"/>
  <outline>
    <contour>
      <point x="211.04" y="758.14" type="curve" smooth="yes"/>
      <point x="130.832" y="758.14"/>
      <point x="64.40400000000001" y="806.02"/>
      <point x="60.85000000000001" y="906.38" type="curve"/>
      <point x="158.486" y="906.38" type="line"/>
      <point x="161.404" y="867.96"/>
      <point x="180.57399999999998" y="856.96"/>
      <point x="213.57" y="856.96" type="curve" smooth="yes"/>
      <point x="245.708" y="856.96"/>
      <point x="264.642" y="867.96"/>
      <point x="267.76" y="906.38" type="curve"/>
      <point x="361.336" y="906.38" type="line"/>
      <point x="357.78200000000004" y="806.02"/>
      <point x="291.154" y="758.14"/>
    </contour>
    <contour>
      <point x="264.512" y="933.32" type="curve" smooth="yes"/>
      <point x="328.104" y="933.32"/>
      <point x="368.73800000000006" y="982.22"/>
      <point x="383.22400000000005" y="1059.42" type="curve"/>
      <point x="300.474" y="1089.6" type="line"/>
      <point x="294.19" y="1060.6"/>
      <point x="283.87" y="1045.48"/>
      <point x="266.23" y="1045.48" type="curve" smooth="yes"/>
      <point x="236.082" y="1045.48"/>
      <point x="219.054" y="1088.04"/>
      <point x="155.838" y="1088.04" type="curve" smooth="yes"/>
      <point x="87.88" y="1088.04"/>
      <point x="51.542" y="1041.14"/>
      <point x="38.586" y="962.66" type="curve"/>
      <point x="121.336" y="934.34" type="line"/>
      <point x="127.396" y="963.76"/>
      <point x="136.51600000000002" y="977.74"/>
      <point x="153.814" y="977.74" type="curve" smooth="yes"/>
      <point x="178.55" y="977.74"/>
      <point x="196.778" y="933.32"/>
    </contour>
  </outline>
</glyph>
<glyph name="caroncomb.alt" format="2">
  <anchor x="-452.79400000000004" y="574.0" name="_right"/>
  <outline>
    <contour>
      <point x="-350.79200000000003" y="527.72" type="line"/>
      <point x="-442.674" y="527.72" type="line"/>
      <point x="-442.674" y="537.72" type="line"/>
      <point x="-429.89399999999995" y="710.0" type="line"/>
      <point x="-277.398" y="710.0" type="line"/>
    </contour>
  </outline>
</glyph>
<glyph name="cent.proportional" format="2">
  <advance width="517.092"/>
  <outline>
    <contour>
      <point x="247.402" y="623.0" type="line"/>
      <point x="247.402" y="470.52" type="line"/>
      <point x="269.29" y="455.08" type="line"/>
      <point x="269.29" y="54.379999999999995" type="line"/>
      <point x="247.402" y="37.379999999999995" type="line"/>
      <point x="247.402" y="-126.0" type="line"/>
      <point x="347.38" y="-126.0" type="line"/>
      <point x="347.38" y="28.32" type="line"/>
      <point x="325.492" y="43.04" type="line"/>
      <point x="325.492" y="462.24" type="line"/>
      <point x="347.38" y="478.66" type="line"/>
      <point x="347.38" y="623.0" type="line"/>
    </contour>
    <contour>
      <point x="325.998" y="74.38" type="curve" smooth="yes"/>
      <point x="257.24" y="74.38"/>
      <point x="225.02" y="118.437316959051"/>
      <point x="225.02" y="253.88" type="curve" smooth="yes"/>
      <point x="225.02" y="381.81488571422057"/>
      <point x="231.998" y="437.64"/>
      <point x="308.288" y="437.64" type="curve" smooth="yes"/>
      <point x="356.78200000000004" y="437.64"/>
      <point x="367.314" y="417.28"/>
      <point x="373.01" y="400.62" type="curve"/>
      <point x="416.400545988064" y="387.44092960272917"/>
      <point x="442.06004486065206" y="434.196657047935"/>
      <point x="356.994" y="458.78" type="curve"/>
      <point x="356.994" y="325.56" type="line"/>
      <point x="487.52" y="325.56" type="line"/>
      <point x="487.52" y="457.32" type="line"/>
      <point x="467.586" y="478.6"/>
      <point x="411.878" y="523.16"/>
      <point x="292.472" y="523.16" type="curve" smooth="yes"/>
      <point x="134.174" y="523.16"/>
      <point x="23.982000000000003" y="422.92"/>
      <point x="23.982000000000003" y="253.88" type="curve" smooth="yes"/>
      <point x="23.982000000000003" y="83.96"/>
      <point x="137.422" y="-13.72"/>
      <point x="289.436" y="-13.72" type="curve" smooth="yes"/>
      <point x="404.3" y="-13.72"/>
      <point x="462.196" y="47.3"/>
      <point x="498.546" y="134.07999999999998" type="curve"/>
      <point x="432.212" y="180.96" type="line"/>
      <point x="413.349647299432" y="133.325494462975"/>
      <point x="378.87" y="74.38"/>
    </contour>
  </outline>
</glyph>
<glyph name="circumflex.uc" format="2">
  <advance width="418.408"/>
  <anchor x="204.58" y="694.0" name="_top"/>
  <outline>
    <contour>
      <point x="310.418" y="912.74" type="line"/>
      <point x="404.794" y="773.58" type="line"/>
      <point x="404.794" y="750.26" type="line"/>
      <point x="291.048" y="750.26" type="line"/>
      <point x="155.544" y="845.28" type="line"/>
      <point x="294.92" y="845.28" type="line"/>
      <point x="158.78" y="750.26" type="line"/>
      <point x="53.06" y="750.26" type="line"/>
      <point x="53.06" y="773.58" type="line"/>
      <point x="148.072" y="912.74" type="line"/>
    </contour>
  </outline>
</glyph>
<glyph name="circumflex_acute.uc" format="2">
  <advance width="425.776"/>
  <anchor x="204.58" y="749.0" name="_top"/>
  <outline>
    <contour>
      <point x="401.46400000000006" y="972.62" type="curve" smooth="yes"/>
      <point x="370.57400000000007" y="892.64" type="line"/>
      <point x="370.57400000000007" y="865.76" type="line"/>
      <point x="426.376" y="865.76" type="line"/>
      <point x="479.212" y="892.0" type="line" smooth="yes"/>
      <point x="533.59" y="913.44"/>
      <point x="561.48" y="936.3"/>
      <point x="561.48" y="984.52" type="curve" smooth="yes"/>
      <point x="561.48" y="1020.42"/>
      <point x="535.72" y="1049.6"/>
      <point x="495.628" y="1049.6" type="curve" smooth="yes"/>
      <point x="449.93399999999997" y="1049.6"/>
      <point x="425.952" y="1021.84"/>
    </contour>
    <component base="circumflex.uc" xOffset="-58.37399999999999"/>
  </outline>
</glyph>
<glyph name="f_f_j.alt" format="2">
  <advance width="892.7260000000001"/>
  <outline>
    <contour>
      <point x="277.374" y="79.94" type="curve"/>
      <point x="277.374" y="551.72" type="line" smooth="yes"/>
      <point x="277.374" y="627.68"/>
      <point x="285.282" y="659.66"/>
      <point x="313.63" y="659.66" type="curve" smooth="yes"/>
      <point x="324.798" y="659.66"/>
      <point x="333.48199999999997" y="647.98"/>
      <point x="333.49399999999997" y="634.52" type="curve"/>
      <point x="356.08799999999997" y="638.98"/>
      <point x="354.676" y="684.12"/>
      <point x="317.996" y="682.9" type="curve"/>
      <point x="317.996" y="568.94" type="line"/>
      <point x="468.574" y="575.94" type="line"/>
      <point x="468.574" y="707.26" type="line"/>
      <point x="432.754" y="725.52"/>
      <point x="382.51800000000003" y="744.9"/>
      <point x="299.65" y="744.9" type="curve" smooth="yes"/>
      <point x="152.802" y="744.9"/>
      <point x="47.400000000000006" y="689.36"/>
      <point x="47.400000000000006" y="539.68" type="curve" smooth="yes"/>
      <point x="47.400000000000006" y="102.5" type="line" smooth="yes"/>
      <point x="47.400000000000006" y="81.24000000000001"/>
      <point x="37.692" y="71.66"/>
      <point x="18.945999999999998" y="71.66" type="curve" smooth="yes"/>
      <point x="8.625999999999998" y="71.66" type="line"/>
      <point x="8.625999999999998" y="0.0" type="line"/>
      <point x="300.568" y="0.0" type="line"/>
      <point x="300.568" y="71.66" type="line"/>
      <point x="298.038" y="71.66" type="line" smooth="yes"/>
      <point x="283.846" y="71.66"/>
      <point x="277.374" y="73.80000000000001"/>
    </contour>
    <contour>
      <point x="345.956" y="79.94" type="line" smooth="yes"/>
      <point x="345.956" y="73.80000000000001"/>
      <point x="334.212" y="71.66"/>
      <point x="333.882" y="71.66" type="curve" smooth="yes"/>
      <point x="331.47" y="71.66" type="line"/>
      <point x="331.47" y="0.0" type="line"/>
      <point x="596.594" y="0.0" type="line"/>
      <point x="596.594" y="71.66" type="line"/>
      <point x="595.782" y="71.66" type="line" smooth="yes"/>
      <point x="581.896" y="71.66"/>
      <point x="575.9300000000001" y="73.80000000000001"/>
      <point x="575.9300000000001" y="79.94" type="curve" smooth="yes"/>
      <point x="575.9300000000001" y="554.52" type="line" smooth="yes"/>
      <point x="575.9300000000001" y="630.48"/>
      <point x="590.8040000000001" y="662.46"/>
      <point x="639.452" y="662.46" type="curve" smooth="yes"/>
      <point x="670.848" y="662.46"/>
      <point x="684.804" y="644.9"/>
      <point x="685.016" y="631.66" type="curve"/>
      <point x="709.916" y="635.9"/>
      <point x="708.598" y="687.06"/>
      <point x="669.424" y="688.64" type="curve"/>
      <point x="669.424" y="578.74" type="line"/>
      <point x="849.798" y="578.74" type="line"/>
      <point x="849.798" y="703.54" type="line"/>
      <point x="809.3879999999999" y="723.0"/>
      <point x="729.9680000000001" y="747.7"/>
      <point x="626.672" y="747.7" type="curve" smooth="yes"/>
      <point x="471.94" y="747.7"/>
      <point x="345.956" y="692.16"/>
      <point x="345.956" y="542.48" type="curve" smooth="yes"/>
    </contour>
    <contour>
      <point x="644.512" y="-26.939999999999998" type="line" smooth="yes"/>
      <point x="644.512" y="-116.47999999999999"/>
      <point x="630.508" y="-145.62"/>
      <point x="596.3" y="-145.62" type="curve" smooth="yes"/>
      <point x="571.364" y="-145.62"/>
      <point x="551.124" y="-135.46"/>
      <point x="534.9200000000001" y="-127.74000000000001" type="curve"/>
      <point x="534.9200000000001" y="-220.84" type="line"/>
      <point x="547.0640000000001" y="-227.7"/>
      <point x="590.91" y="-236.0"/>
      <point x="645.006" y="-236.0" type="curve" smooth="yes"/>
      <point x="809.7760000000001" y="-236.0"/>
      <point x="874.4860000000001" y="-172.5"/>
      <point x="874.4860000000001" y="0.5799999999999983" type="curve" smooth="yes"/>
      <point x="874.4860000000001" y="513.16" type="line"/>
      <point x="614.9159999999999" y="513.16" type="line"/>
      <point x="614.9159999999999" y="432.08" type="line"/>
      <point x="630.108" y="432.08" type="line" smooth="yes"/>
      <point x="642.088" y="432.08"/>
      <point x="644.512" y="421.24"/>
      <point x="644.512" y="403.42" type="curve" smooth="yes"/>
    </contour>
    <contour>
      <point x="-6.378" y="513.16" type="line"/>
      <point x="-6.378" y="432.08" type="line"/>
      <point x="352.028" y="432.08" type="line"/>
      <point x="352.028" y="513.16" type="line"/>
    </contour>
    <contour>
      <point x="292.178" y="513.16" type="line"/>
      <point x="292.178" y="432.08" type="line"/>
      <point x="647.336" y="432.08" type="line"/>
      <point x="647.336" y="513.16" type="line"/>
    </contour>
  </outline>
</glyph>
<glyph name="f_i" format="2">
  <advance width="605.384"/>
  <outline>
    <contour>
      <point x="-6.378" y="513.16" type="line"/>
      <point x="-6.378" y="432.08" type="line"/>
      <point x="348.78000000000003" y="432.08" type="line"/>
      <point x="348.78000000000003" y="513.16" type="line"/>
    </contour>
    <contour>
      <point x="460.784" y="564.8199999999999" type="curve" smooth="yes"/>
      <point x="533.92" y="564.8199999999999"/>
      <point x="575.106" y="599.0"/>
      <point x="575.106" y="656.78" type="curve" smooth="yes"/>
      <point x="575.106" y="714.42"/>
      <point x="533.92" y="748.6"/>
      <point x="460.784" y="748.6" type="curve" smooth="yes"/>
      <point x="388.19" y="748.6"/>
      <point x="346.368" y="714.42"/>
      <point x="346.368" y="656.78" type="curve" smooth="yes"/>
      <point x="346.368" y="598.14"/>
      <point x="388.19" y="564.8199999999999"/>
    </contour>
    <contour>
      <point x="345.956" y="79.94" type="line"/>
      <point x="345.956" y="73.80000000000001"/>
      <point x="336.43600000000004" y="71.66"/>
      <point x="331.352" y="71.66" type="curve" smooth="yes"/>
      <point x="328.94" y="71.66" type="line"/>
      <point x="328.94" y="0.0" type="line"/>
      <point x="597.088" y="0.0" type="line"/>
      <point x="597.088" y="71.66" type="line"/>
      <point x="596.088" y="71.66" type="line" smooth="yes"/>
      <point x="585.874" y="71.66"/>
      <point x="577.13" y="77.80000000000001"/>
      <point x="577.13" y="99.06" type="curve" smooth="yes"/>
      <point x="577.13" y="513.16" type="line"/>
      <point x="326.10400000000004" y="513.16" type="line"/>
      <point x="326.10400000000004" y="432.08" type="line"/>
      <point x="331.552" y="432.08" type="line" smooth="yes"/>
      <point x="343.53200000000004" y="432.08"/>
      <point x="345.956" y="421.24"/>
      <point x="345.956" y="403.42" type="curve"/>
    </contour>
    <contour>
      <point x="298.038" y="0.0" type="line"/>
      <point x="298.038" y="71.66" type="line"/>
      <point x="297.226" y="71.66" type="line" smooth="yes"/>
      <point x="283.34000000000003" y="71.66"/>
      <point x="277.374" y="73.80000000000001"/>
      <point x="277.374" y="79.94" type="curve"/>
      <point x="277.374" y="586.48" type="line" smooth="yes"/>
      <point x="277.374" y="642.9"/>
      <point x="286.118" y="659.02"/>
      <point x="306.97" y="659.02" type="curve" smooth="yes"/>
      <point x="315.96" y="659.02"/>
      <point x="329.822" y="652.88"/>
      <point x="328.622" y="650.9" type="curve"/>
      <point x="328.622" y="735.12" type="line"/>
      <point x="317.808" y="741.12"/>
      <point x="288.63599999999997" y="747.7"/>
      <point x="249.65" y="747.7" type="curve" smooth="yes"/>
      <point x="137.952" y="747.7"/>
      <point x="47.400000000000006" y="695.38"/>
      <point x="47.400000000000006" y="542.62" type="curve" smooth="yes"/>
      <point x="47.400000000000006" y="102.5" type="line" smooth="yes"/>
      <point x="47.400000000000006" y="81.24000000000001"/>
      <point x="37.692" y="71.66"/>
      <point x="18.945999999999998" y="71.66" type="curve" smooth="yes"/>
      <point x="8.625999999999998" y="71.66" type="line"/>
      <point x="8.625999999999998" y="0.0" type="line"/>
    </contour>
  </outline>
</glyph>
<glyph name="florin" format="2">
  <advance width="467.88"/>
  <outline>
    <contour>
      <point x="53.272000000000006" y="508.0" type="line"/>
      <point x="46.376000000000005" y="418.74" type="line"/>
      <point x="423.81" y="418.74" type="line"/>
      <point x="430.706" y="508.0" type="line"/>
    </contour>
    <contour>
      <point x="282.45799999999997" y="79.22" type="curve" smooth="yes"/>
      <point x="339.472" y="559.64" type="line" smooth="yes"/>
      <point x="346.55600000000004" y="623.7"/>
      <point x="371.962" y="642.52"/>
      <point x="400.028" y="642.52" type="curve" smooth="yes"/>
      <point x="424.822" y="642.52"/>
      <point x="439.908" y="635.52"/>
      <point x="451.558" y="628.6800000000001" type="curve"/>
      <point x="457.36" y="723.92" type="line"/>
      <point x="436.79" y="735.92"/>
      <point x="404.57" y="744.64"/>
      <point x="349.086" y="744.64" type="curve" smooth="yes"/>
      <point x="224.726" y="744.64"/>
      <point x="152.532" y="681.62"/>
      <point x="135.316" y="547.58" type="curve" smooth="yes"/>
      <point x="79.808" y="65.22" type="line" smooth="yes"/>
      <point x="57.837999999999994" y="-114.06"/>
      <point x="30.866000000000014" y="-135.6"/>
      <point x="-0.6239999999999988" y="-135.6" type="curve" smooth="yes"/>
      <point x="-25.736" y="-135.6"/>
      <point x="-47.06999999999999" y="-123.44"/>
      <point x="-56.507999999999996" y="-118.16" type="curve"/>
      <point x="-60.474000000000004" y="-215.98" type="line"/>
      <point x="-47.082" y="-225.56"/>
      <point x="-13.274000000000001" y="-236.0"/>
      <point x="26.536" y="-236.0" type="curve" smooth="yes"/>
      <point x="157.462" y="-236.0"/>
      <point x="251.99200000000002" y="-156.72"/>
    </contour>
  </outline>
</glyph>
<glyph name="four.old" format="2">
  <advance width="467.88"/>
  <outline>
    <contour>
      <point x="16.016000000000002" y="7.980000000000004" type="line"/>
      <point x="466.174" y="7.980000000000004" type="line"/>
      <point x="466.174" y="150.66" type="line"/>
      <point x="100.47199999999998" y="150.66" type="line"/>
      <point x="65.01599999999999" y="72.68" type="line"/>
      <point x="243.542" y="470.8" type="line"/>
      <point x="257.958" y="548.0" type="line"/>
      <point x="200.108" y="548.0" type="line"/>
      <point x="16.016000000000002" y="152.22" type="line"/>
    </contour>
    <contour>
      <point x="423.61" y="-146.18" type="line"/>
      <point x="423.61" y="548.0" type="line"/>
      <point x="227.644" y="548.0" type="line"/>
      <point x="211.264" y="458.65999999999997" type="line"/>
      <point x="211.264" y="-146.18" type="line"/>
    </contour>
  </outline>
</glyph>
<glyph name="franc.proportional" format="2">
  <advance width="519.7280000000001"/>
  <outline>
    <contour>
      <point x="290.648" y="422.64" type="line"/>
      <point x="290.648" y="347.42" type="line"/>
      <point x="430.894" y="334.26" type="line"/>
      <point x="430.894" y="435.8" type="line"/>
    </contour>
    <contour>
      <point x="312.34799999999996" y="622.9" type="line"/>
      <point x="332.87" y="622.9" type="line" smooth="yes"/>
      <point x="367.702" y="622.9"/>
      <point x="396.49800000000005" y="615.9"/>
      <point x="398.82800000000003" y="579.9" type="curve" smooth="yes"/>
      <point x="403.476" y="503.5" type="line"/>
      <point x="500.288" y="503.5" type="line"/>
      <point x="500.288" y="710.0" type="line"/>
      <point x="40.128" y="710.0" type="line"/>
      <point x="40.128" y="632.9" type="line"/>
      <point x="48.612" y="632.9" type="line" smooth="yes"/>
      <point x="65.334" y="632.9"/>
      <point x="77.572" y="625.9"/>
      <point x="77.572" y="596.9" type="curve" smooth="yes"/>
      <point x="77.572" y="113.1" type="line" smooth="yes"/>
      <point x="77.572" y="84.1"/>
      <point x="65.334" y="77.1"/>
      <point x="48.612" y="77.1" type="curve" smooth="yes"/>
      <point x="40.128" y="77.1" type="line"/>
      <point x="40.128" y="0.0" type="line"/>
      <point x="367.20799999999997" y="0.0" type="line"/>
      <point x="367.20799999999997" y="77.1" type="line"/>
      <point x="353.028" y="77.1" type="line" smooth="yes"/>
      <point x="335.294" y="77.1"/>
      <point x="312.34799999999996" y="78.1"/>
      <point x="312.34799999999996" y="113.1" type="curve" smooth="yes"/>
    </contour>
    <contour>
      <point x="40.128" y="253.22" type="line"/>
      <point x="40.128" y="173.7" type="line"/>
      <point x="389.99" y="173.7" type="line"/>
      <point x="389.99" y="253.22" type="line"/>
    </contour>
  </outline>
</glyph>
<glyph name="liraTurkish.proportional" format="2">
  <advance width="574.9300000000001"/>
  <outline>
    <contour>
      <point x="25.842000000000002" y="398.7" type="line"/>
      <point x="25.842000000000002" y="312.3" type="line"/>
      <point x="372.692" y="489.98" type="line"/>
      <point x="372.692" y="576.38" type="line"/>
    </contour>
    <contour>
      <point x="25.842000000000002" y="246.6" type="line"/>
      <point x="25.842000000000002" y="160.2" type="line"/>
      <point x="372.692" y="337.88" type="line"/>
      <point x="372.692" y="424.28" type="line"/>
    </contour>
    <contour>
      <point x="298.73199999999997" y="87.96000000000001" type="curve" smooth="yes"/>
      <point x="278.31600000000003" y="87.96000000000001" type="line"/>
      <point x="278.31600000000003" y="596.9" type="line" smooth="yes"/>
      <point x="278.31600000000003" y="625.9"/>
      <point x="291.86" y="632.9"/>
      <point x="310.512" y="632.9" type="curve" smooth="yes"/>
      <point x="324.974" y="632.9" type="line"/>
      <point x="324.974" y="710.0" type="line"/>
      <point x="25.842000000000002" y="710.0" type="line"/>
      <point x="25.842000000000002" y="632.9" type="line"/>
      <point x="34.632" y="632.9" type="line" smooth="yes"/>
      <point x="51.35399999999999" y="632.9"/>
      <point x="63.592000000000006" y="625.9"/>
      <point x="63.592000000000006" y="596.9" type="curve" smooth="yes"/>
      <point x="63.592000000000006" y="113.1" type="line" smooth="yes"/>
      <point x="63.592000000000006" y="84.1"/>
      <point x="51.35399999999999" y="77.1"/>
      <point x="34.632" y="77.1" type="curve" smooth="yes"/>
      <point x="25.842000000000002" y="77.1" type="line"/>
      <point x="25.842000000000002" y="0.0" type="line"/>
      <point x="268.972" y="0.0" type="line" smooth="yes"/>
      <point x="478.90600000000006" y="0.0"/>
      <point x="544.052" y="109.76"/>
      <point x="558.102" y="274.12" type="curve"/>
      <point x="418.75" y="310.02" type="line"/>
      <point x="409.854" y="209.8"/>
      <point x="396.968" y="87.96000000000001"/>
    </contour>
  </outline>
</glyph>
<glyph name="nine.lin" format="2">
  <advance width="467.88"/>
  <outline>
    <contour>
      <point x="50.730000000000004" y="71.66" type="line"/>
      <point x="168.480668023108" y="89.97253518360247"/>
      <point x="249.638" y="200.36"/>
      <point x="249.638" y="435.12" type="curve" smooth="yes"/>
      <point x="249.638" y="591.86"/>
      <point x="247.014" y="634.2"/>
      <point x="236.988" y="634.2" type="curve" smooth="yes"/>
      <point x="222.808" y="634.2"/>
      <point x="220.97200000000004" y="591.26"/>
      <point x="220.97200000000004" y="494.42" type="curve" smooth="yes"/>
      <point x="220.97200000000004" y="412.3"/>
      <point x="218.76" y="363.94"/>
      <point x="242.542" y="363.94" type="curve" smooth="yes"/>
      <point x="255.734" y="363.94"/>
      <point x="268.36" y="398.86"/>
      <point x="283.17600000000004" y="447.44" type="curve"/>
      <point x="286.788" y="375.65999999999997" type="line"/>
      <point x="274.362" y="328.92"/>
      <point x="249.52" y="278.14"/>
      <point x="177.114" y="278.14" type="curve" smooth="yes"/>
      <point x="76.854" y="278.14"/>
      <point x="8.496000000000002" y="350.66"/>
      <point x="8.496000000000002" y="488.4" type="curve" smooth="yes"/>
      <point x="8.496000000000002" y="631.72"/>
      <point x="95.918" y="720.0"/>
      <point x="230.916" y="720.0" type="curve" smooth="yes"/>
      <point x="380.07" y="720.0"/>
      <point x="459.384" y="628.6"/>
      <point x="459.384" y="425.66" type="curve" smooth="yes"/>
      <point x="459.384" y="181.5"/>
      <point x="297.01181427579604" y="10.746405923558719"/>
      <point x="62.992000000000004" y="-14.14" type="curve"/>
    </contour>
  </outline>
</glyph>
<glyph name="peso.proportional" format="2">
  <advance width="649.218"/>
  <outline>
    <contour>
      <point x="32.102000000000004" y="0.0" type="line"/>
      <point x="336.11799999999994" y="0.0" type="line"/>
      <point x="336.11799999999994" y="77.1" type="line"/>
      <point x="316.384" y="77.1" type="line" smooth="yes"/>
      <point x="304.404" y="77.1"/>
      <point x="289.142" y="80.1"/>
      <point x="289.142" y="87.1" type="curve" smooth="yes"/>
      <point x="289.142" y="224.6" type="line"/>
      <point x="316.384" y="224.6" type="line" smooth="yes"/>
      <point x="481.24800000000005" y="224.6"/>
      <point x="571.67" y="318.6"/>
      <point x="571.67" y="474.24" type="curve" smooth="yes"/>
      <point x="571.67" y="624.72"/>
      <point x="487.61400000000003" y="710.0"/>
      <point x="320.35" y="710.0" type="curve" smooth="yes"/>
      <point x="32.102000000000004" y="710.0" type="line"/>
      <point x="32.102000000000004" y="632.9" type="line"/>
      <point x="40.022" y="632.9" type="line" smooth="yes"/>
      <point x="57.308" y="632.9"/>
      <point x="68.888" y="625.9"/>
      <point x="68.888" y="596.9" type="curve" smooth="yes"/>
      <point x="68.888" y="113.1" type="line" smooth="yes"/>
      <point x="68.888" y="84.1"/>
      <point x="57.308" y="77.1"/>
      <point x="40.022" y="77.1" type="curve" smooth="yes"/>
      <point x="32.102000000000004" y="77.1" type="line"/>
    </contour>
    <contour>
      <point x="305.93399999999997" y="622.04" type="line" smooth="yes"/>
      <point x="337.468371257532" y="622.04"/>
      <point x="360.112" y="576.38"/>
      <point x="360.112" y="469.8" type="curve" smooth="yes"/>
      <point x="360.112" y="363.22"/>
      <point x="337.461267441858" y="312.28"/>
      <point x="303.71" y="312.28" type="curve" smooth="yes"/>
      <point x="289.142" y="312.28" type="line"/>
      <point x="289.142" y="622.04" type="line"/>
    </contour>
    <contour>
      <point x="32.102000000000004" y="508.28" type="line"/>
      <point x="32.102000000000004" y="427.04" type="line"/>
      <point x="196.06" y="427.04" type="line"/>
      <point x="232.504" y="435.64" type="line"/>
      <point x="491.262" y="435.64" type="line"/>
      <point x="535.426" y="427.04" type="line"/>
      <point x="628.096" y="427.04" type="line"/>
      <point x="628.096" y="508.28" type="line"/>
      <point x="548.006" y="508.28" type="line"/>
      <point x="506.136" y="499.68" type="line"/>
      <point x="203.474" y="499.68" type="line"/>
      <point x="183.41000000000003" y="508.28" type="line"/>
    </contour>
  </outline>
</glyph>
<glyph name="ruble.proportional" format="2">
  <advance width="518.116"/>
  <outline>
    <contour>
      <point x="13.074000000000002" y="378.98" type="line"/>
      <point x="254.604" y="378.98" type="line" smooth="yes"/>
      <point x="282.87" y="378.98"/>
      <point x="311.406" y="421.08"/>
      <point x="311.406" y="507.52" type="curve" smooth="yes"/>
      <point x="311.406" y="588.52"/>
      <point x="282.87" y="622.04"/>
      <point x="258.57" y="622.04" type="curve" smooth="yes"/>
      <point x="258.534" y="622.04" type="line"/>
      <point x="258.534" y="87.1" type="line" smooth="yes"/>
      <point x="258.534" y="80.1"/>
      <point x="273.23199999999997" y="77.1"/>
      <point x="285.776" y="77.1" type="curve" smooth="yes"/>
      <point x="304.946" y="77.1" type="line"/>
      <point x="304.946" y="0.0" type="line"/>
      <point x="13.074000000000002" y="0.0" type="line"/>
      <point x="13.074000000000002" y="77.1" type="line"/>
      <point x="21.464" y="77.1" type="line" smooth="yes"/>
      <point x="38.28000000000001" y="77.1"/>
      <point x="50.424" y="84.1"/>
      <point x="50.424" y="113.1" type="curve" smooth="yes"/>
      <point x="50.424" y="596.9" type="line" smooth="yes"/>
      <point x="50.424" y="625.9"/>
      <point x="38.28000000000001" y="632.9"/>
      <point x="21.464" y="632.9" type="curve" smooth="yes"/>
      <point x="13.074000000000002" y="632.9" type="line"/>
      <point x="13.074000000000002" y="710.0" type="line"/>
      <point x="268.772" y="710.0" type="line" smooth="yes"/>
      <point x="416.856" y="710.0"/>
      <point x="510.902" y="639.58"/>
      <point x="510.902" y="511.96" type="curve" smooth="yes"/>
      <point x="510.902" y="379.32"/>
      <point x="411.054" y="300.32"/>
      <point x="268.384" y="300.32" type="curve" smooth="yes"/>
      <point x="13.074000000000002" y="300.32" type="line"/>
    </contour>
    <contour>
      <point x="337.836" y="164.24" type="line"/>
      <point x="13.074000000000002" y="164.24" type="line"/>
      <point x="13.074000000000002" y="242.9" type="line"/>
      <point x="337.836" y="242.9" type="line"/>
    </contour>
  </outline>
</glyph>
<glyph name="schwa" format="2">
  <advance width="522.588"/>
  <outline>
    <contour>
      <point x="244.566" y="523.16" type="curve" smooth="yes"/>
      <point x="134.10399999999998" y="523.16"/>
      <point x="65.628" y="467.72"/>
      <point x="27.03" y="388.96" type="curve"/>
      <point x="96.4" y="340.94" type="line"/>
      <point x="119.606" y="383.5"/>
      <point x="154.05" y="429.18"/>
      <point x="204.768" y="429.18" type="curve" smooth="yes"/>
      <point x="268.772" y="429.18"/>
      <point x="277.974" y="369.08"/>
      <point x="277.974" y="258.0" type="curve" smooth="yes"/>
      <point x="277.974" y="126.28"/>
      <point x="272.632" y="79.68"/>
      <point x="254.31" y="79.68" type="curve" smooth="yes"/>
      <point x="234.964" y="79.68"/>
      <point x="227.668" y="111.72"/>
      <point x="226.138" y="242.72" type="curve"/>
      <point x="207.804" y="205.24" type="line"/>
      <point x="402.86400000000003" y="205.24" type="line"/>
      <point x="401.86400000000003" y="287.9" type="line"/>
      <point x="15.391999999999998" y="287.9" type="line"/>
      <point x="16.392000000000003" y="90.16"/>
      <point x="101.28399999999999" y="-10.0"/>
      <point x="258.546" y="-10.0" type="curve"/>
      <point x="406.32399999999996" y="-10.0"/>
      <point x="508.914" y="96.42"/>
      <point x="508.914" y="257.72" type="curve" smooth="yes"/>
      <point x="508.914" y="422.16"/>
      <point x="415.808" y="523.16"/>
    </contour>
  </outline>
</glyph>
<glyph name="seven.lin" format="2">
  <advance width="467.88"/>
  <outline>
    <contour>
      <point x="184.834" y="561.62" type="line" smooth="yes"/>
      <point x="138.422" y="561.62"/>
      <point x="121.20599999999999" y="554.62"/>
      <point x="117.582" y="518.62" type="curve" smooth="yes"/>
      <point x="111.828" y="444.1" type="line"/>
      <point x="40.528000000000006" y="444.1" type="line"/>
      <point x="40.528000000000006" y="710.0" type="line"/>
      <point x="451.488" y="710.0" type="line"/>
      <point x="451.488" y="575.52" type="line"/>
      <point x="366.902" y="433.18"/>
      <point x="324.16200000000003" y="308.72"/>
      <point x="321.55" y="0.0" type="curve"/>
      <point x="117.18199999999999" y="0.0" type="line"/>
      <point x="133.068" y="293.4"/>
      <point x="307.57" y="514.34"/>
      <point x="390.802" y="597.12" type="curve"/>
      <point x="415.00800000000004" y="561.62" type="line"/>
    </contour>
  </outline>
</glyph>
<glyph name="sterling.proportional" format="2">
  <advance width="524.906"/>
  <outline>
    <contour>
      <point x="31.902" y="396.82" type="line"/>
      <point x="31.902" y="292.94" type="line"/>
      <point x="420.49199999999996" y="292.94" type="line"/>
      <point x="420.49199999999996" y="396.82" type="line"/>
    </contour>
    <contour>
      <point x="346.05" y="-10.0" type="curve"/>
      <point x="437.484" y="-10.0"/>
      <point x="489.568" y="78.58"/>
      <point x="514.692" y="186.04" type="curve"/>
      <point x="423.21000000000004" y="217.8" type="line"/>
      <point x="406.3" y="154.56"/>
      <point x="386.43600000000004" y="129.88"/>
      <point x="340.802" y="129.88" type="curve" smooth="yes"/>
      <point x="297.438" y="129.88"/>
      <point x="278.40999999999997" y="156.01999999999998"/>
      <point x="233.846" y="213.28" type="curve"/>
      <point x="199.508" y="203.42"/>
      <point x="160.64000000000001" y="156.2"/>
      <point x="163.546" y="132.18" type="curve"/>
      <point x="242.06" y="41.74"/>
      <point x="283.246" y="-10.0"/>
    </contour>
    <contour>
      <point x="301.392" y="625.32" type="curve" smooth="yes"/>
      <point x="314.466" y="625.32"/>
      <point x="324.88" y="613.8"/>
      <point x="332.906" y="589.12" type="curve"/>
      <point x="362.266" y="598.92"/>
      <point x="364.09000000000003" y="629.08"/>
      <point x="324.668" y="629.36" type="curve"/>
      <point x="324.668" y="514.76" type="line"/>
      <point x="485.014" y="514.76" type="line"/>
      <point x="485.014" y="660.44" type="line"/>
      <point x="446.734" y="692.46"/>
      <point x="386.672" y="719.72"/>
      <point x="285.976" y="719.72" type="curve" smooth="yes"/>
      <point x="124.772" y="719.72"/>
      <point x="49.824000000000005" y="632.98"/>
      <point x="49.824000000000005" y="527.32" type="curve" smooth="yes"/>
      <point x="49.824000000000005" y="402.56"/>
      <point x="131.738" y="341.3"/>
      <point x="131.738" y="232.32" type="curve" smooth="yes"/>
      <point x="131.738" y="168.51999999999998"/>
      <point x="95.282" y="128.26"/>
      <point x="33.726" y="106.88" type="curve"/>
      <point x="33.726" y="-10.42" type="line"/>
      <point x="203.66199999999998" y="17.26"/>
      <point x="294.202" y="140.94"/>
      <point x="294.202" y="261.08" type="curve" smooth="yes"/>
      <point x="294.202" y="382.82"/>
      <point x="262.606" y="460.74"/>
      <point x="262.606" y="541.78" type="curve" smooth="yes"/>
      <point x="262.606" y="595.38"/>
      <point x="273.832" y="625.32"/>
    </contour>
  </outline>
</glyph>
<glyph name="three.lin" format="2">
  <advance width="467.88"/>
  <outline>
    <contour>
      <point x="215.712" y="627.9" type="curve" smooth="yes"/>
      <point x="197.966" y="627.9"/>
      <point x="184.716" y="607.1"/>
      <point x="174.196" y="582.6" type="curve"/>
      <point x="170.218" y="589.64"/>
      <point x="164.85199999999998" y="637.72"/>
      <point x="192.43599999999998" y="641.0" type="curve"/>
      <point x="192.43599999999998" y="528.12" type="line"/>
      <point x="38.892" y="528.12" type="line"/>
      <point x="38.892" y="645.2" type="line"/>
      <point x="78.372" y="683.76"/>
      <point x="149.566" y="719.72"/>
      <point x="244.566" y="719.72" type="curve" smooth="yes"/>
      <point x="361.336" y="719.72"/>
      <point x="453.924" y="666.34"/>
      <point x="453.924" y="551.3" type="curve" smooth="yes"/>
      <point x="453.924" y="424.66"/>
      <point x="328.634" y="371.0"/>
      <point x="173.196" y="371.0" type="curve"/>
      <point x="187.87" y="389.46" type="line"/>
      <point x="384.648" y="389.46"/>
      <point x="465.832" y="318.36"/>
      <point x="465.832" y="201.02" type="curve"/>
      <point x="465.832" y="62.54"/>
      <point x="360.336" y="-10.0"/>
      <point x="232.222" y="-10.0" type="curve" smooth="yes"/>
      <point x="91.34" y="-10.0"/>
      <point x="33.738" y="69.02"/>
      <point x="7.59" y="160.02" type="curve"/>
      <point x="89.53999999999999" y="214.2" type="line"/>
      <point x="109.16799999999999" y="160.4"/>
      <point x="133.48000000000002" y="84.39999999999999"/>
      <point x="190.918" y="84.39999999999999" type="curve" smooth="yes"/>
      <point x="236.258" y="84.39999999999999"/>
      <point x="256.722" y="127.38"/>
      <point x="256.722" y="208.76" type="curve" smooth="yes"/>
      <point x="256.722" y="283.0"/>
      <point x="247.52" y="334.4"/>
      <point x="169.83" y="334.4" type="curve" smooth="yes"/>
      <point x="141.576" y="334.4" type="line"/>
      <point x="141.576" y="421.06" type="line"/>
      <point x="160.416" y="421.06" type="line" smooth="yes"/>
      <point x="229.586" y="421.06"/>
      <point x="251.58" y="458.18"/>
      <point x="251.58" y="545.32" type="curve" smooth="yes"/>
      <point x="251.58" y="604.8"/>
      <point x="241.636" y="627.9"/>
    </contour>
  </outline>
</glyph>
<glyph name="tilde.uc" format="2">
  <advance width="417.75"/>
  <anchor x="208.64" y="694.0" name="_top"/>
  <outline>
    <contour>
      <point x="263.806" y="752.1" type="curve" smooth="yes"/>
      <point x="326.892" y="752.1"/>
      <point x="364.292316833856" y="810.1579618894964"/>
      <point x="381.6" y="899.24" type="curve"/>
      <point x="298.756" y="929.42" type="line"/>
      <point x="291.366" y="898.0"/>
      <point x="282.552" y="882.02"/>
      <point x="265.01800000000003" y="882.02" type="curve" smooth="yes"/>
      <point x="235.47" y="882.02"/>
      <point x="218.548" y="925.42"/>
      <point x="156.144" y="925.42" type="curve" smooth="yes"/>
      <point x="88.892" y="925.42"/>
      <point x="55.6845989107272" y="869.7351611637256"/>
      <point x="40.010000000000005" y="778.14" type="curve"/>
      <point x="122.854" y="749.82" type="line"/>
      <point x="128.914" y="781.52"/>
      <point x="137.728" y="796.5"/>
      <point x="154.826" y="796.5" type="curve" smooth="yes"/>
      <point x="178.75" y="796.5"/>
      <point x="196.978" y="752.1"/>
    </contour>
  </outline>
</glyph>
<glyph name="whitedownpointingtriangle" format="2">
  <advance width="538.78"/>
  <outline>
    <contour>
      <point x="493.18" y="464.0" type="line"/>
      <point x="46.07" y="464.0" type="line"/>
      <point x="268.89" y="91.0" type="line"/>
    </contour>
    <contour>
      <point x="421.81" y="414.0" type="line"/>
      <point x="416.22" y="430.0" type="line"/>
      <point x="264.83" y="175.0" type="line"/>
      <point x="273.95" y="175.0" type="line"/>
      <point x="123.03" y="430.0" type="line"/>
      <point x="116.97" y="414.0" type="line"/>
    </contour>
  </outline>
</glyph>
<glyph name="yen.proportional" format="2">
  <advance width="526.624"/>
  <outline>
    <contour>
      <point x="43.763999999999996" y="371.2" type="line"/>
      <point x="43.763999999999996" y="283.08" type="line"/>
      <point x="486.02599999999995" y="283.08" type="line"/>
      <point x="486.02599999999995" y="371.2" type="line"/>
    </contour>
    <contour>
      <point x="43.763999999999996" y="239.48" type="line"/>
      <point x="43.763999999999996" y="151.36" type="line"/>
      <point x="486.02599999999995" y="151.36" type="line"/>
      <point x="486.02599999999995" y="239.48" type="line"/>
    </contour>
    <contour>
      <point x="17.922" y="710.0" type="line"/>
      <point x="17.922" y="632.9" type="line"/>
      <point x="24.924" y="632.9" type="line" smooth="yes"/>
      <point x="36.338" y="632.9"/>
      <point x="41.14" y="629.32"/>
      <point x="50.647999999999996" y="606.9" type="curve" smooth="yes"/>
      <point x="160.628" y="330.04" type="line"/>
      <point x="372.562" y="328.32" type="line"/>
      <point x="469.492" y="591.9" type="line" smooth="yes"/>
      <point x="482.86" y="626.18"/>
      <point x="489.65000000000003" y="632.9"/>
      <point x="502.80600000000004" y="632.9" type="curve" smooth="yes"/>
      <point x="508.702" y="632.9" type="line"/>
      <point x="508.702" y="710.0" type="line"/>
      <point x="371.574" y="710.0" type="line"/>
      <point x="371.574" y="632.9" type="line"/>
      <point x="370.88" y="632.9" type="line" smooth="yes"/>
      <point x="382.224" y="632.9"/>
      <point x="393.12" y="625.9"/>
      <point x="393.12" y="614.9" type="curve"/>
      <point x="310.5" y="381.78" type="line"/>
      <point x="361.866" y="399.84000000000003" type="line"/>
      <point x="283.976" y="622.9" type="line"/>
      <point x="283.976" y="629.9"/>
      <point x="292.166" y="632.9"/>
      <point x="301.98" y="632.9" type="curve" smooth="yes"/>
      <point x="305.216" y="632.9" type="line"/>
      <point x="305.216" y="710.0" type="line"/>
    </contour>
    <contour>
      <point x="107.25000000000001" y="0.0" type="line"/>
      <point x="423.10400000000004" y="0.0" type="line"/>
      <point x="423.10400000000004" y="77.1" type="line"/>
      <point x="411.96000000000004" y="77.1" type="line" smooth="yes"/>
      <point x="395.874" y="77.1"/>
      <point x="383.63599999999997" y="84.1"/>
      <point x="383.63599999999997" y="113.1" type="curve" smooth="yes"/>
      <point x="383.63599999999997" y="375.04" type="line"/>
      <point x="146.624" y="375.04" type="line"/>
      <point x="146.624" y="113.1" type="line" smooth="yes"/>
      <point x="146.624" y="84.1"/>
      <point x="134.48000000000002" y="77.1"/>
      <point x="118.394" y="77.1" type="curve" smooth="yes"/>
      <point x="107.25000000000001" y="77.1" type="line"/>
    </contour>
  </outline>
</glyph>
<glyph name="zero.slash" format="2">
  <advance width="467.88"/>
  <outline>
    <contour>
      <point x="142.70600000000002" y="134.0" type="line"/>
      <point x="321.25600000000003" y="369.26" type="line"/>
      <point x="325.10400000000004" y="474.0" type="line"/>
      <point x="147.06" y="238.32" type="line"/>
    </contour>
    <contour>
      <point x="233.94" y="-11.0" type="curve" smooth="yes"/>
      <point x="367.42" y="-11.0"/>
      <point x="461.914" y="108.4"/>
      <point x="461.914" y="304.0" type="curve" smooth="yes"/>
      <point x="461.914" y="499.6"/>
      <point x="367.42" y="619.0"/>
      <point x="233.94" y="619.0" type="curve" smooth="yes"/>
      <point x="100.46" y="619.0"/>
      <point x="5.966000000000001" y="499.6"/>
      <point x="5.966000000000001" y="304.0" type="curve" smooth="yes"/>
      <point x="5.966000000000001" y="108.4"/>
      <point x="100.46" y="-11.0"/>
    </contour>
    <contour>
      <point x="233.94" y="78.96000000000001" type="curve" smooth="yes"/>
      <point x="209.09550000000002" y="78.96000000000001"/>
      <point x="207.49800000000002" y="123.92"/>
      <point x="207.49800000000002" y="304.0" type="curve" smooth="yes"/>
      <point x="207.49800000000002" y="484.08"/>
      <point x="209.09550000000002" y="529.18"/>
      <point x="233.94" y="529.18" type="curve" smooth="yes"/>
      <point x="258.7845" y="529.18"/>
      <point x="260.382" y="484.08"/>
      <point x="260.382" y="304.0" type="curve" smooth="yes"/>
      <point x="260.382" y="123.78"/>
      <point x="258.7845" y="78.96000000000001"/>
    </contour>
  </outline>
</glyph>
